<svg data-v-fde0c5aa="" xmlns="http://www.w3.org/2000/svg" viewBox="0 0 300 300" class="iconLeftSlogan"><!----><defs data-v-fde0c5aa=""><!----></defs><rect data-v-fde0c5aa="" fill="#00242C" x="0" y="0" width="300px" height="300px" class="logo-background-square"></rect><defs data-v-fde0c5aa=""><!----></defs><g data-v-fde0c5aa="" id="f2d742c8-5c2e-450e-8b93-5ec1c5fba18c" fill="#FFFFFF" transform="matrix(2.9857385210288707,0,0,2.9857385210288707,118.95370458567488,115.24822919827861)"><path d="M0.71 9.42L0.71 9.42L0.71 9.42Q0.71 8.46 0.99 7.74L0.99 7.74L0.99 7.74Q1.27 7.01 1.74 6.54L1.74 6.54L1.74 6.54Q2.20 6.06 2.80 5.82L2.80 5.82L2.80 5.82Q3.40 5.59 4.03 5.59L4.03 5.59L4.03 5.59Q5.50 5.59 6.29 6.50L6.29 6.50L6.29 6.50Q7.07 7.42 7.07 9.30L7.07 9.30L7.07 9.30Q7.07 9.38 7.07 9.51L7.07 9.51L7.07 9.51Q7.07 9.65 7.06 9.76L7.06 9.76L2.07 9.76L2.07 9.76Q2.16 10.89 2.73 11.48L2.73 11.48L2.73 11.48Q3.30 12.07 4.52 12.07L4.52 12.07L4.52 12.07Q5.21 12.07 5.68 11.95L5.68 11.95L5.68 11.95Q6.15 11.83 6.38 11.72L6.38 11.72L6.57 12.81L6.57 12.81Q6.33 12.94 5.73 13.08L5.73 13.08L5.73 13.08Q5.14 13.22 4.38 13.22L4.38 13.22L4.38 13.22Q3.43 13.22 2.74 12.93L2.74 12.93L2.74 12.93Q2.04 12.64 1.60 12.14L1.60 12.14L1.60 12.14Q1.15 11.63 0.93 10.94L0.93 10.94L0.93 10.94Q0.71 10.25 0.71 9.42ZM2.10 8.71L5.71 8.71L5.71 8.71Q5.73 7.83 5.27 7.26L5.27 7.26L5.27 7.26Q4.82 6.69 4.02 6.69L4.02 6.69L4.02 6.69Q3.57 6.69 3.23 6.87L3.23 6.87L3.23 6.87Q2.88 7.04 2.65 7.32L2.65 7.32L2.65 7.32Q2.41 7.60 2.27 7.97L2.27 7.97L2.27 7.97Q2.14 8.33 2.10 8.71L2.10 8.71ZM14.57 3.35L16.21 3.35L16.21 3.35Q15.78 3.82 15.23 4.40L15.23 4.40L15.23 4.40Q14.69 4.98 14.09 5.59L14.09 5.59L14.09 5.59Q13.50 6.20 12.91 6.79L12.91 6.79L12.91 6.79Q12.32 7.38 11.80 7.88L11.80 7.88L11.80 7.88Q12.40 8.30 13.08 8.92L13.08 8.92L13.08 8.92Q13.75 9.53 14.39 10.23L14.39 10.23L14.39 10.23Q15.04 10.93 15.60 11.66L15.60 11.66L15.60 11.66Q16.17 12.39 16.55 13.05L16.55 13.05L14.95 13.05L14.95 13.05Q14.53 12.39 13.99 11.72L13.99 11.72L13.99 11.72Q13.44 11.06 12.83 10.45L12.83 10.45L12.83 10.45Q12.22 9.84 11.60 9.32L11.60 9.32L11.60 9.32Q10.98 8.81 10.39 8.44L10.39 8.44L10.39 13.05L9.03 13.05L9.03 3.35L10.39 3.35L10.39 7.63L10.39 7.63Q10.88 7.17 11.47 6.59L11.47 6.59L11.47 6.59Q12.05 6.01 12.63 5.42L12.63 5.42L12.63 5.42Q13.20 4.83 13.71 4.29L13.71 4.29L13.71 4.29Q14.22 3.75 14.57 3.35L14.57 3.35ZM20.22 12.11L20.22 12.11L20.22 12.11Q20.68 12.11 21.04 12.09L21.04 12.09L21.04 12.09Q21.39 12.07 21.63 12.01L21.63 12.01L21.63 9.84L21.63 9.84Q21.49 9.77 21.18 9.72L21.18 9.72L21.18 9.72Q20.86 9.67 20.41 9.67L20.41 9.67L20.41 9.67Q20.12 9.67 19.79 9.72L19.79 9.72L19.79 9.72Q19.46 9.76 19.19 9.89L19.19 9.89L19.19 9.89Q18.91 10.02 18.73 10.25L18.73 10.25L18.73 10.25Q18.55 10.49 18.55 10.86L18.55 10.86L18.55 10.86Q18.55 11.56 19.00 11.84L19.00 11.84L19.00 11.84Q19.45 12.11 20.22 12.11ZM20.10 5.59L20.10 5.59L20.10 5.59Q20.89 5.59 21.43 5.79L21.43 5.79L21.43 5.79Q21.97 5.99 22.30 6.36L22.30 6.36L22.30 6.36Q22.62 6.73 22.76 7.25L22.76 7.25L22.76 7.25Q22.90 7.76 22.90 8.37L22.90 8.37L22.90 12.92L22.90 12.92Q22.74 12.95 22.44 13.00L22.44 13.00L22.44 13.00Q22.13 13.05 21.76 13.09L21.76 13.09L21.76 13.09Q21.38 13.13 20.94 13.17L20.94 13.17L20.94 13.17Q20.50 13.20 20.06 13.20L20.06 13.20L20.06 13.20Q19.45 13.20 18.93 13.08L18.93 13.08L18.93 13.08Q18.41 12.95 18.03 12.68L18.03 12.68L18.03 12.68Q17.65 12.40 17.44 11.96L17.44 11.96L17.44 11.96Q17.23 11.51 17.23 10.88L17.23 10.88L17.23 10.88Q17.23 10.28 17.48 9.84L17.48 9.84L17.48 9.84Q17.72 9.41 18.14 9.14L18.14 9.14L18.14 9.14Q18.56 8.88 19.12 8.75L19.12 8.75L19.12 8.75Q19.68 8.62 20.30 8.62L20.30 8.62L20.30 8.62Q20.50 8.62 20.71 8.64L20.71 8.64L20.71 8.64Q20.92 8.67 21.11 8.70L21.11 8.70L21.11 8.70Q21.29 8.74 21.43 8.76L21.43 8.76L21.43 8.76Q21.57 8.79 21.63 8.81L21.63 8.81L21.63 8.44L21.63 8.44Q21.63 8.12 21.56 7.80L21.56 7.80L21.56 7.80Q21.49 7.49 21.31 7.25L21.31 7.25L21.31 7.25Q21.13 7 20.81 6.85L20.81 6.85L20.81 6.85Q20.50 6.71 19.99 6.71L19.99 6.71L19.99 6.71Q19.35 6.71 18.87 6.80L18.87 6.80L18.87 6.80Q18.38 6.89 18.14 6.99L18.14 6.99L17.99 5.91L17.99 5.91Q18.24 5.80 18.83 5.69L18.83 5.69L18.83 5.69Q19.42 5.59 20.10 5.59ZM25.06 13.05L25.06 5.98L25.06 5.98Q25.51 5.87 26.25 5.74L26.25 5.74L26.25 5.74Q26.99 5.61 27.96 5.61L27.96 5.61L27.96 5.61Q28.83 5.61 29.40 5.86L29.40 5.86L29.40 5.86Q29.97 6.10 30.32 6.54L30.32 6.54L30.32 6.54Q30.66 6.99 30.80 7.60L30.80 7.60L30.80 7.60Q30.94 8.22 30.94 8.96L30.94 8.96L30.94 13.05L29.64 13.05L29.64 9.24L29.64 9.24Q29.64 8.57 29.55 8.09L29.55 8.09L29.55 8.09Q29.46 7.62 29.25 7.32L29.25 7.32L29.25 7.32Q29.04 7.03 28.69 6.89L28.69 6.89L28.69 6.89Q28.34 6.76 27.82 6.76L27.82 6.76L27.82 6.76Q27.61 6.76 27.38 6.78L27.38 6.78L27.38 6.78Q27.16 6.79 26.96 6.81L26.96 6.81L26.96 6.81Q26.75 6.83 26.59 6.86L26.59 6.86L26.59 6.86Q26.43 6.89 26.36 6.90L26.36 6.90L26.36 13.05L25.06 13.05ZM39.52 9.41L39.52 9.41L39.52 9.41Q39.52 10.28 39.27 10.98L39.27 10.98L39.27 10.98Q39.02 11.68 38.56 12.18L38.56 12.18L38.56 12.18Q38.11 12.68 37.48 12.96L37.48 12.96L37.48 12.96Q36.85 13.23 36.11 13.23L36.11 13.23L36.11 13.23Q35.36 13.23 34.73 12.96L34.73 12.96L34.73 12.96Q34.10 12.68 33.65 12.18L33.65 12.18L33.65 12.18Q33.19 11.68 32.94 10.98L32.94 10.98L32.94 10.98Q32.69 10.28 32.69 9.41L32.69 9.41L32.69 9.41Q32.69 8.55 32.94 7.85L32.94 7.85L32.94 7.85Q33.19 7.14 33.65 6.64L33.65 6.64L33.65 6.64Q34.10 6.13 34.73 5.86L34.73 5.86L34.73 5.86Q35.36 5.59 36.11 5.59L36.11 5.59L36.11 5.59Q36.85 5.59 37.48 5.86L37.48 5.86L37.48 5.86Q38.11 6.13 38.56 6.64L38.56 6.64L38.56 6.64Q39.02 7.14 39.27 7.85L39.27 7.85L39.27 7.85Q39.52 8.55 39.52 9.41ZM38.16 9.41L38.16 9.41L38.16 9.41Q38.16 8.18 37.61 7.46L37.61 7.46L37.61 7.46Q37.06 6.73 36.11 6.73L36.11 6.73L36.11 6.73Q35.15 6.73 34.60 7.46L34.60 7.46L34.60 7.46Q34.05 8.18 34.05 9.41L34.05 9.41L34.05 9.41Q34.05 10.64 34.60 11.36L34.60 11.36L34.60 11.36Q35.15 12.08 36.11 12.08L36.11 12.08L36.11 12.08Q37.06 12.08 37.61 11.36L37.61 11.36L37.61 11.36Q38.16 10.64 38.16 9.41ZM41.36 13.05L41.36 5.98L41.36 5.98Q41.80 5.87 42.55 5.74L42.55 5.74L42.55 5.74Q43.29 5.61 44.25 5.61L44.25 5.61L44.25 5.61Q45.12 5.61 45.70 5.86L45.70 5.86L45.70 5.86Q46.27 6.10 46.61 6.54L46.61 6.54L46.61 6.54Q46.96 6.99 47.10 7.60L47.10 7.60L47.10 7.60Q47.24 8.22 47.24 8.96L47.24 8.96L47.24 13.05L45.93 13.05L45.93 9.24L45.93 9.24Q45.93 8.57 45.84 8.09L45.84 8.09L45.84 8.09Q45.75 7.62 45.54 7.32L45.54 7.32L45.54 7.32Q45.33 7.03 44.98 6.89L44.98 6.89L44.98 6.89Q44.63 6.76 44.11 6.76L44.11 6.76L44.11 6.76Q43.90 6.76 43.68 6.78L43.68 6.78L43.68 6.78Q43.46 6.79 43.25 6.81L43.25 6.81L43.25 6.81Q43.05 6.83 42.89 6.86L42.89 6.86L42.89 6.86Q42.73 6.89 42.66 6.90L42.66 6.90L42.66 13.05L41.36 13.05Z"></path></g><defs data-v-fde0c5aa=""><!----></defs><g data-v-fde0c5aa="" id="af9be1e9-43f2-4eb0-83b8-6a173819e555" stroke="none" fill="#81E291" transform="matrix(0.8519847818728512,0,0,0.8519847818728512,31.309754574884114,107.40076090635745)"><path d="M11.1 90h78c.6 0 1-.4 1-1s-.4-1-1-1h-9.6v-8.8c1.7 0 4.9-.3 7.2-2.5 3-2.9 2.7-7.9 2.7-8.1 0-.5-.4-.9-.9-.9-.2 0-3-.3-5.6.8.3-.8.4-1.7.4-2.6 0-4.4-4-7.8-4.2-7.9-.4-.3-.9-.3-1.3 0-.2.1-4.1 3.6-4.1 8 0 .8.2 1.7.4 2.4-2.5-1-5.1-.8-5.2-.8-.5 0-.9.4-.9.9 0 .2-.5 5.2 2.5 8.2 2.2 2.2 5.4 2.6 7.1 2.7V88H50.9v-8.8c1.7 0 4.9-.3 7.1-2.5 3-2.9 2.7-7.9 2.7-8.1 0-.5-.4-.9-.9-.9-.2 0-3-.3-5.6.8.3-.8.4-1.7.4-2.6 0-4.4-4-7.8-4.2-7.9-.4-.3-.9-.3-1.3 0-.2.1-4.1 3.6-4.1 8 0 .8.2 1.7.4 2.4-2.5-1-5.1-.8-5.2-.8-.5 0-.9.4-.9.9 0 .2-.5 5.2 2.5 8.2 2.2 2.2 5.4 2.6 7.1 2.7V88H22.2v-8.8c1.7 0 4.9-.3 7.1-2.5 3-2.9 2.7-7.9 2.7-8.1 0-.5-.4-.9-.9-.9-.2 0-3-.3-5.6.8.3-.8.4-1.7.4-2.6 0-4.4-4-7.8-4.2-7.9-.4-.3-.9-.3-1.3 0-.2.1-4.1 3.6-4.1 8 0 .8.2 1.7.4 2.4-2.5-1-5.1-.8-5.2-.8-.5 0-.9.4-.9.9 0 .2-.5 5.2 2.5 8.2 2.2 2.2 5.4 2.6 7.1 2.7V88h-9c-.6 0-1 .4-1 1s.4 1 .9 1zm74.2-14.7c-1.7 1.6-4.3 1.9-5.7 1.9.1-1.4.4-4 2.1-5.7 1.7-1.6 4.3-1.9 5.7-1.9-.1 1.4-.4 4.1-2.1 5.7zm-6.8-15.2c1 1 2.8 3.2 2.8 5.8 0 2.5-1.7 4.7-2.7 5.8-1-1-2.8-3.2-2.8-5.8-.1-2.4 1.7-4.7 2.7-5.8zm-6.6 15.2C70.3 73.6 70 71 70 69.6c1.4.1 4 .4 5.7 2.1 1.5 1.6 1.8 3.9 1.9 5.4v.3c-1.4-.1-4.1-.4-5.7-2.1zm-15.3 0c-1.7 1.6-4.3 1.9-5.7 1.9.1-1.4.4-4 2.1-5.7 1.7-1.6 4.3-1.9 5.7-1.9 0 1.4-.4 4.1-2.1 5.7zm-6.8-15.2c1 1 2.8 3.2 2.8 5.8 0 2.5-1.7 4.7-2.7 5.8-1-1-2.8-3.2-2.8-5.8-.1-2.4 1.7-4.7 2.7-5.8zm-6.6 15.2c-1.6-1.7-1.9-4.3-1.9-5.7 1.4.1 4 .4 5.7 2.1 1.5 1.6 1.9 4 1.9 5.4v.3c-1.4-.1-4.1-.4-5.7-2.1zm-15.3 0c-1.7 1.6-4.3 1.9-5.7 1.9.1-1.4.4-4 2.1-5.7 1.7-1.6 4.3-1.9 5.7-1.9 0 1.4-.4 4.1-2.1 5.7zm-6.8-15.2c1 1 2.8 3.2 2.8 5.8 0 2.5-1.7 4.7-2.7 5.8-1-1-2.8-3.2-2.8-5.8-.1-2.4 1.7-4.7 2.7-5.8zm-6.6 15.2c-1.6-1.7-1.9-4.3-1.9-5.7 1.4.1 4 .4 5.7 2.1 1.5 1.6 1.9 4 1.9 5.4v.3c-1.4-.1-4.1-.5-5.7-2.1zM49.3 39.7c5.1 0 9.2-4.1 9.2-9.2s-4.1-9.2-9.2-9.2-9.2 4.1-9.2 9.2 4.1 9.2 9.2 9.2zm0-16.4c4 0 7.2 3.2 7.2 7.2s-3.2 7.2-7.2 7.2-7.2-3.2-7.2-7.2 3.2-7.2 7.2-7.2zM49.3 17c.6 0 1-.4 1-1v-5c0-.6-.4-1-1-1s-1 .4-1 1v5c0 .6.4 1 1 1zM55.9 18.8c.2.1.3.1.5.1.3 0 .7-.2.9-.5l2.5-4.4c.3-.5.1-1.1-.4-1.4-.5-.3-1.1-.1-1.4.4l-2.5 4.4c-.2.5 0 1.1.4 1.4zM61.7 24.1c.2 0 .3 0 .5-.1l4.3-2.6c.5-.3.6-.9.4-1.4-.3-.5-.9-.6-1.4-.4l-4.3 2.6c-.5.3-.6.9-.4 1.4.3.4.6.5.9.5zM62.7 30.3c0 .5.5 1 1 1l5-.1c.6 0 1-.5 1-1s-.5-1-1-1l-5 .1c-.5 0-1 .4-1 1zM62.4 36.6c-.5-.3-1.1-.1-1.4.4-.3.5-.1 1.1.4 1.4l4.4 2.4c.2.1.3.1.5.1.4 0 .7-.2.9-.5.3-.5.1-1.1-.4-1.4l-4.4-2.4zM56.3 42c-.5.3-.6.9-.3 1.4l2.6 4.3c.2.3.5.5.9.5.2 0 .4 0 .5-.1.5-.3.6-.9.3-1.4l-2.6-4.3c-.3-.6-.9-.7-1.4-.4zM49.7 44c-.6 0-1 .5-1 1l.2 5c0 .5.5 1 1 1 .6 0 1-.5 1-1l-.2-5c0-.6-.4-1.1-1-1zM41.6 42.8l-2.3 4.4c-.3.5-.1 1.1.4 1.4.1.1.3.1.5.1.4 0 .7-.2.9-.5l2.3-4.4c.3-.5.1-1.1-.4-1.4-.5-.2-1.1 0-1.4.4zM36.5 37.5l-4.2 2.7c-.5.3-.6.9-.3 1.4.2.3.5.5.8.5.2 0 .4-.1.5-.2l4.2-2.7c.5-.3.6-.9.3-1.4-.2-.5-.8-.6-1.3-.3zM29.8 32.5l5.1-.3c.6 0 1-.5.9-1 0-.6-.5-1-1-.9l-5 .3c-.6 0-1 .5-.9 1-.1.5.4.9.9.9zM31.4 22.6l4.5 2.3c.1.1.3.1.5.1.4 0 .7-.2.9-.5.2-.5.1-1.1-.4-1.3l-4.5-2.3c-.5-.2-1.1-.1-1.3.4-.4.4-.2 1 .3 1.3zM40.4 19c.2.3.5.4.8.4.2 0 .4-.1.6-.2.5-.3.6-.9.3-1.4l-2.8-4.2c-.3-.5-.9-.6-1.4-.3s-.6.9-.3 1.4l2.8 4.3z"></path></g><defs data-v-fde0c5aa=""><!----></defs><g data-v-fde0c5aa="" id="ab22e9e6-72ba-41e3-b61a-29b90140c07e" fill="#FFFFFF" transform="matrix(0.6520224635189359,0,0,0.6520224635189359,120.77364853287878,163.3281380270184)"><path d="M3.46 12.08L3.46 12.08L3.46 12.08Q5.59 12.08 5.59 10.63L5.59 10.63L5.59 10.63Q5.59 10.18 5.40 9.86L5.40 9.86L5.40 9.86Q5.21 9.55 4.89 9.32L4.89 9.32L4.89 9.32Q4.56 9.09 4.15 8.92L4.15 8.92L4.15 8.92Q3.74 8.75 3.28 8.58L3.28 8.58L3.28 8.58Q2.74 8.40 2.27 8.17L2.27 8.17L2.27 8.17Q1.79 7.94 1.44 7.62L1.44 7.62L1.44 7.62Q1.09 7.31 0.89 6.87L0.89 6.87L0.89 6.87Q0.69 6.44 0.69 5.82L0.69 5.82L0.69 5.82Q0.69 4.55 1.55 3.84L1.55 3.84L1.55 3.84Q2.42 3.12 3.95 3.12L3.95 3.12L3.95 3.12Q4.83 3.12 5.55 3.31L5.55 3.31L5.55 3.31Q6.27 3.50 6.61 3.72L6.61 3.72L6.17 4.83L6.17 4.83Q5.88 4.65 5.30 4.47L5.30 4.47L5.30 4.47Q4.72 4.30 3.95 4.30L3.95 4.30L3.95 4.30Q3.56 4.30 3.22 4.38L3.22 4.38L3.22 4.38Q2.88 4.47 2.63 4.63L2.63 4.63L2.63 4.63Q2.38 4.80 2.23 5.06L2.23 5.06L2.23 5.06Q2.09 5.32 2.09 5.67L2.09 5.67L2.09 5.67Q2.09 6.06 2.24 6.33L2.24 6.33L2.24 6.33Q2.39 6.59 2.67 6.80L2.67 6.80L2.67 6.80Q2.95 7 3.33 7.17L3.33 7.17L3.33 7.17Q3.70 7.34 4.14 7.50L4.14 7.50L4.14 7.50Q4.77 7.76 5.30 8.01L5.30 8.01L5.30 8.01Q5.82 8.26 6.21 8.61L6.21 8.61L6.21 8.61Q6.59 8.96 6.80 9.44L6.80 9.44L6.80 9.44Q7.01 9.93 7.01 10.61L7.01 10.61L7.01 10.61Q7.01 11.89 6.08 12.57L6.08 12.57L6.08 12.57Q5.15 13.26 3.46 13.26L3.46 13.26L3.46 13.26Q2.88 13.26 2.40 13.18L2.40 13.18L2.40 13.18Q1.92 13.10 1.54 13.00L1.54 13.00L1.54 13.00Q1.16 12.89 0.89 12.78L0.89 12.78L0.89 12.78Q0.62 12.66 0.46 12.57L0.46 12.57L0.87 11.45L0.87 11.45Q1.19 11.63 1.85 11.86L1.85 11.86L1.85 11.86Q2.51 12.08 3.46 12.08ZM14.36 5.77L14.36 12.84L14.36 12.84Q13.92 12.95 13.18 13.08L13.18 13.08L13.18 13.08Q12.45 13.20 11.48 13.20L11.48 13.20L11.48 13.20Q10.64 13.20 10.07 12.96L10.07 12.96L10.07 12.96Q9.49 12.71 9.14 12.26L9.14 12.26L9.14 12.26Q8.79 11.82 8.64 11.21L8.64 11.21L8.64 11.21Q8.48 10.60 8.48 9.86L8.48 9.86L8.48 5.77L9.79 5.77L9.79 9.58L9.79 9.58Q9.79 10.91 10.21 11.48L10.21 11.48L10.21 11.48Q10.63 12.05 11.62 12.05L11.62 12.05L11.62 12.05Q11.83 12.05 12.05 12.04L12.05 12.04L12.05 12.04Q12.28 12.03 12.47 12.01L12.47 12.01L12.47 12.01Q12.67 11.98 12.83 11.96L12.83 11.96L12.83 11.96Q12.99 11.94 13.06 11.91L13.06 11.91L13.06 5.77L14.36 5.77ZM18.30 12.11L18.30 12.11L18.30 12.11Q19.10 12.11 19.48 11.90L19.48 11.90L19.48 11.90Q19.87 11.69 19.87 11.23L19.87 11.23L19.87 11.23Q19.87 10.75 19.49 10.47L19.49 10.47L19.49 10.47Q19.11 10.19 18.24 9.84L18.24 9.84L18.24 9.84Q17.82 9.67 17.44 9.50L17.44 9.50L17.44 9.50Q17.05 9.32 16.77 9.09L16.77 9.09L16.77 9.09Q16.49 8.85 16.32 8.51L16.32 8.51L16.32 8.51Q16.16 8.18 16.16 7.69L16.16 7.69L16.16 7.69Q16.16 6.72 16.87 6.15L16.87 6.15L16.87 6.15Q17.58 5.59 18.82 5.59L18.82 5.59L18.82 5.59Q19.12 5.59 19.43 5.62L19.43 5.62L19.43 5.62Q19.74 5.66 20.01 5.71L20.01 5.71L20.01 5.71Q20.27 5.75 20.48 5.81L20.48 5.81L20.48 5.81Q20.68 5.87 20.79 5.91L20.79 5.91L20.55 7.03L20.55 7.03Q20.34 6.92 19.89 6.80L19.89 6.80L19.89 6.80Q19.45 6.68 18.82 6.68L18.82 6.68L18.82 6.68Q18.27 6.68 17.86 6.89L17.86 6.89L17.86 6.89Q17.46 7.11 17.46 7.57L17.46 7.57L17.46 7.57Q17.46 7.81 17.55 7.99L17.55 7.99L17.55 7.99Q17.64 8.18 17.83 8.32L17.83 8.32L17.83 8.32Q18.02 8.47 18.30 8.60L18.30 8.60L18.30 8.60Q18.58 8.72 18.97 8.86L18.97 8.86L18.97 8.86Q19.49 9.06 19.89 9.25L19.89 9.25L19.89 9.25Q20.30 9.44 20.59 9.69L20.59 9.69L20.59 9.69Q20.87 9.94 21.03 10.30L21.03 10.30L21.03 10.30Q21.18 10.65 21.18 11.17L21.18 11.17L21.18 11.17Q21.18 12.18 20.43 12.70L20.43 12.70L20.43 12.70Q19.68 13.22 18.30 13.22L18.30 13.22L18.30 13.22Q17.33 13.22 16.79 13.05L16.79 13.05L16.79 13.05Q16.24 12.89 16.04 12.81L16.04 12.81L16.28 11.69L16.28 11.69Q16.51 11.77 17.00 11.94L17.00 11.94L17.00 11.94Q17.49 12.11 18.30 12.11ZM24.07 3.51L24.07 5.77L26.82 5.77L26.82 6.86L24.07 6.86L24.07 10.22L24.07 10.22Q24.07 10.77 24.15 11.12L24.15 11.12L24.15 11.12Q24.23 11.48 24.40 11.68L24.40 11.68L24.40 11.68Q24.57 11.89 24.82 11.97L24.82 11.97L24.82 11.97Q25.07 12.05 25.41 12.05L25.41 12.05L25.41 12.05Q26.00 12.05 26.36 11.92L26.36 11.92L26.36 11.92Q26.71 11.79 26.85 11.73L26.85 11.73L27.10 12.81L27.10 12.81Q26.91 12.91 26.42 13.05L26.42 13.05L26.42 13.05Q25.93 13.20 25.30 13.20L25.30 13.20L25.30 13.20Q24.56 13.20 24.07 13.01L24.07 13.01L24.07 13.01Q23.59 12.82 23.30 12.45L23.30 12.45L23.30 12.45Q23.00 12.07 22.88 11.52L22.88 11.52L22.88 11.52Q22.76 10.96 22.76 10.23L22.76 10.23L22.76 3.74L24.07 3.51ZM30.94 12.11L30.94 12.11L30.94 12.11Q31.40 12.11 31.76 12.09L31.76 12.09L31.76 12.09Q32.12 12.07 32.35 12.01L32.35 12.01L32.35 9.84L32.35 9.84Q32.21 9.77 31.90 9.72L31.90 9.72L31.90 9.72Q31.58 9.67 31.14 9.67L31.14 9.67L31.14 9.67Q30.84 9.67 30.51 9.72L30.51 9.72L30.51 9.72Q30.18 9.76 29.91 9.89L29.91 9.89L29.91 9.89Q29.64 10.02 29.46 10.25L29.46 10.25L29.46 10.25Q29.27 10.49 29.27 10.86L29.27 10.86L29.27 10.86Q29.27 11.56 29.72 11.84L29.72 11.84L29.72 11.84Q30.17 12.11 30.94 12.11ZM30.83 5.59L30.83 5.59L30.83 5.59Q31.61 5.59 32.15 5.79L32.15 5.79L32.15 5.79Q32.69 5.99 33.02 6.36L33.02 6.36L33.02 6.36Q33.35 6.73 33.49 7.25L33.49 7.25L33.49 7.25Q33.63 7.76 33.63 8.37L33.63 8.37L33.63 12.92L33.63 12.92Q33.46 12.95 33.16 13.00L33.16 13.00L33.16 13.00Q32.86 13.05 32.48 13.09L32.48 13.09L32.48 13.09Q32.10 13.13 31.66 13.17L31.66 13.17L31.66 13.17Q31.22 13.20 30.79 13.20L30.79 13.20L30.79 13.20Q30.17 13.20 29.65 13.08L29.65 13.08L29.65 13.08Q29.13 12.95 28.76 12.68L28.76 12.68L28.76 12.68Q28.38 12.40 28.17 11.96L28.17 11.96L28.17 11.96Q27.96 11.51 27.96 10.88L27.96 10.88L27.96 10.88Q27.96 10.28 28.20 9.84L28.20 9.84L28.20 9.84Q28.45 9.41 28.87 9.14L28.87 9.14L28.87 9.14Q29.29 8.88 29.85 8.75L29.85 8.75L29.85 8.75Q30.41 8.62 31.02 8.62L31.02 8.62L31.02 8.62Q31.22 8.62 31.43 8.64L31.43 8.64L31.43 8.64Q31.64 8.67 31.83 8.70L31.83 8.70L31.83 8.70Q32.02 8.74 32.16 8.76L32.16 8.76L32.16 8.76Q32.30 8.79 32.35 8.81L32.35 8.81L32.35 8.44L32.35 8.44Q32.35 8.12 32.28 7.80L32.28 7.80L32.28 7.80Q32.21 7.49 32.03 7.25L32.03 7.25L32.03 7.25Q31.85 7 31.54 6.85L31.54 6.85L31.54 6.85Q31.22 6.71 30.72 6.71L30.72 6.71L30.72 6.71Q30.07 6.71 29.59 6.80L29.59 6.80L29.59 6.80Q29.11 6.89 28.87 6.99L28.87 6.99L28.71 5.91L28.71 5.91Q28.97 5.80 29.55 5.69L29.55 5.69L29.55 5.69Q30.14 5.59 30.83 5.59ZM37.09 5.77L37.09 13.05L35.78 13.05L35.78 5.77L37.09 5.77ZM36.43 4.45L36.43 4.45L36.43 4.45Q36.08 4.45 35.83 4.22L35.83 4.22L35.83 4.22Q35.59 3.99 35.59 3.60L35.59 3.60L35.59 3.60Q35.59 3.21 35.83 2.97L35.83 2.97L35.83 2.97Q36.08 2.74 36.43 2.74L36.43 2.74L36.43 2.74Q36.78 2.74 37.02 2.97L37.02 2.97L37.02 2.97Q37.27 3.21 37.27 3.60L37.27 3.60L37.27 3.60Q37.27 3.99 37.02 4.22L37.02 4.22L37.02 4.22Q36.78 4.45 36.43 4.45ZM39.33 13.05L39.33 5.98L39.33 5.98Q39.77 5.87 40.52 5.74L40.52 5.74L40.52 5.74Q41.26 5.61 42.22 5.61L42.22 5.61L42.22 5.61Q43.09 5.61 43.67 5.86L43.67 5.86L43.67 5.86Q44.24 6.10 44.58 6.54L44.58 6.54L44.58 6.54Q44.93 6.99 45.07 7.60L45.07 7.60L45.07 7.60Q45.21 8.22 45.21 8.96L45.21 8.96L45.21 13.05L43.90 13.05L43.90 9.24L43.90 9.24Q43.90 8.57 43.81 8.09L43.81 8.09L43.81 8.09Q43.72 7.62 43.51 7.32L43.51 7.32L43.51 7.32Q43.30 7.03 42.95 6.89L42.95 6.89L42.95 6.89Q42.60 6.76 42.08 6.76L42.08 6.76L42.08 6.76Q41.87 6.76 41.65 6.78L41.65 6.78L41.65 6.78Q41.43 6.79 41.22 6.81L41.22 6.81L41.22 6.81Q41.02 6.83 40.86 6.86L40.86 6.86L40.86 6.86Q40.70 6.89 40.63 6.90L40.63 6.90L40.63 13.05L39.33 13.05ZM49.83 12.11L49.83 12.11L49.83 12.11Q50.29 12.11 50.65 12.09L50.65 12.09L50.65 12.09Q51.00 12.07 51.24 12.01L51.24 12.01L51.24 9.84L51.24 9.84Q51.10 9.77 50.79 9.72L50.79 9.72L50.79 9.72Q50.47 9.67 50.02 9.67L50.02 9.67L50.02 9.67Q49.73 9.67 49.40 9.72L49.40 9.72L49.40 9.72Q49.07 9.76 48.80 9.89L48.80 9.89L48.80 9.89Q48.52 10.02 48.34 10.25L48.34 10.25L48.34 10.25Q48.16 10.49 48.16 10.86L48.16 10.86L48.16 10.86Q48.16 11.56 48.61 11.84L48.61 11.84L48.61 11.84Q49.06 12.11 49.83 12.11ZM49.71 5.59L49.71 5.59L49.71 5.59Q50.50 5.59 51.04 5.79L51.04 5.79L51.04 5.79Q51.58 5.99 51.91 6.36L51.91 6.36L51.91 6.36Q52.23 6.73 52.37 7.25L52.37 7.25L52.37 7.25Q52.51 7.76 52.51 8.37L52.51 8.37L52.51 12.92L52.51 12.92Q52.35 12.95 52.05 13.00L52.05 13.00L52.05 13.00Q51.74 13.05 51.37 13.09L51.37 13.09L51.37 13.09Q50.99 13.13 50.55 13.17L50.55 13.17L50.55 13.17Q50.11 13.20 49.67 13.20L49.67 13.20L49.67 13.20Q49.06 13.20 48.54 13.08L48.54 13.08L48.54 13.08Q48.02 12.95 47.64 12.68L47.64 12.68L47.64 12.68Q47.26 12.40 47.05 11.96L47.05 11.96L47.05 11.96Q46.84 11.51 46.84 10.88L46.84 10.88L46.84 10.88Q46.84 10.28 47.09 9.84L47.09 9.84L47.09 9.84Q47.33 9.41 47.75 9.14L47.75 9.14L47.75 9.14Q48.17 8.88 48.73 8.75L48.73 8.75L48.73 8.75Q49.29 8.62 49.91 8.62L49.91 8.62L49.91 8.62Q50.11 8.62 50.32 8.64L50.32 8.64L50.32 8.64Q50.53 8.67 50.72 8.70L50.72 8.70L50.72 8.70Q50.90 8.74 51.04 8.76L51.04 8.76L51.04 8.76Q51.18 8.79 51.24 8.81L51.24 8.81L51.24 8.44L51.24 8.44Q51.24 8.12 51.17 7.80L51.17 7.80L51.17 7.80Q51.10 7.49 50.92 7.25L50.92 7.25L50.92 7.25Q50.74 7 50.42 6.85L50.42 6.85L50.42 6.85Q50.11 6.71 49.60 6.71L49.60 6.71L49.60 6.71Q48.96 6.71 48.48 6.80L48.48 6.80L48.48 6.80Q47.99 6.89 47.75 6.99L47.75 6.99L47.60 5.91L47.60 5.91Q47.85 5.80 48.44 5.69L48.44 5.69L48.44 5.69Q49.03 5.59 49.71 5.59ZM55.97 2.18L55.97 6.09L55.97 6.09Q56.21 5.94 56.69 5.77L56.69 5.77L56.69 5.77Q57.18 5.60 57.81 5.60L57.81 5.60L57.81 5.60Q58.59 5.60 59.20 5.88L59.20 5.88L59.20 5.88Q59.81 6.16 60.23 6.66L60.23 6.66L60.23 6.66Q60.65 7.17 60.87 7.87L60.87 7.87L60.87 7.87Q61.08 8.57 61.08 9.41L61.08 9.41L61.08 9.41Q61.08 10.29 60.82 11.00L60.82 11.00L60.82 11.00Q60.56 11.70 60.09 12.19L60.09 12.19L60.09 12.19Q59.61 12.68 58.94 12.95L58.94 12.95L58.94 12.95Q58.27 13.22 57.43 13.22L57.43 13.22L57.43 13.22Q56.52 13.22 55.82 13.09L55.82 13.09L55.82 13.09Q55.12 12.96 54.67 12.84L54.67 12.84L54.67 2.41L55.97 2.18ZM55.97 7.31L55.97 11.91L55.97 11.91Q56.17 11.97 56.53 12.02L56.53 12.02L56.53 12.02Q56.88 12.07 57.41 12.07L57.41 12.07L57.41 12.07Q58.46 12.07 59.09 11.38L59.09 11.38L59.09 11.38Q59.72 10.68 59.72 9.41L59.72 9.41L59.72 9.41Q59.72 8.85 59.61 8.36L59.61 8.36L59.61 8.36Q59.50 7.87 59.25 7.51L59.25 7.51L59.25 7.51Q59.00 7.15 58.60 6.95L58.60 6.95L58.60 6.95Q58.20 6.75 57.64 6.75L57.64 6.75L57.64 6.75Q57.11 6.75 56.66 6.93L56.66 6.93L56.66 6.93Q56.21 7.11 55.97 7.31L55.97 7.31ZM65.28 12.10L65.10 13.19L65.10 13.19Q63.90 13.16 63.39 12.67L63.39 12.67L63.39 12.67Q62.89 12.18 62.89 11.14L62.89 11.14L62.89 2.41L64.19 2.18L64.19 10.93L64.19 10.93Q64.19 11.26 64.25 11.47L64.25 11.47L64.25 11.47Q64.30 11.68 64.43 11.80L64.43 11.80L64.43 11.80Q64.55 11.93 64.76 11.99L64.76 11.99L64.76 11.99Q64.97 12.05 65.28 12.10L65.28 12.10ZM66.33 9.42L66.33 9.42L66.33 9.42Q66.33 8.46 66.61 7.74L66.61 7.74L66.61 7.74Q66.89 7.01 67.35 6.54L67.35 6.54L67.35 6.54Q67.82 6.06 68.42 5.82L68.42 5.82L68.42 5.82Q69.02 5.59 69.65 5.59L69.65 5.59L69.65 5.59Q71.12 5.59 71.90 6.50L71.90 6.50L71.90 6.50Q72.69 7.42 72.69 9.30L72.69 9.30L72.69 9.30Q72.69 9.38 72.69 9.51L72.69 9.51L72.69 9.51Q72.69 9.65 72.67 9.76L72.67 9.76L67.69 9.76L67.69 9.76Q67.77 10.89 68.35 11.48L68.35 11.48L68.35 11.48Q68.92 12.07 70.14 12.07L70.14 12.07L70.14 12.07Q70.83 12.07 71.30 11.95L71.30 11.95L71.30 11.95Q71.76 11.83 72.00 11.72L72.00 11.72L72.18 12.81L72.18 12.81Q71.95 12.94 71.35 13.08L71.35 13.08L71.35 13.08Q70.76 13.22 70.00 13.22L70.00 13.22L70.00 13.22Q69.05 13.22 68.36 12.93L68.36 12.93L68.36 12.93Q67.66 12.64 67.21 12.14L67.21 12.14L67.21 12.14Q66.77 11.63 66.55 10.94L66.55 10.94L66.55 10.94Q66.33 10.25 66.33 9.42ZM67.72 8.71L71.33 8.71L71.33 8.71Q71.34 7.83 70.89 7.26L70.89 7.26L70.89 7.26Q70.43 6.69 69.64 6.69L69.64 6.69L69.64 6.69Q69.19 6.69 68.85 6.87L68.85 6.87L68.85 6.87Q68.50 7.04 68.26 7.32L68.26 7.32L68.26 7.32Q68.03 7.60 67.89 7.97L67.89 7.97L67.89 7.97Q67.76 8.33 67.72 8.71L67.72 8.71ZM85.85 13.05L84.36 13.05L84.36 13.05Q84.13 12.42 83.92 11.81L83.92 11.81L83.92 11.81Q83.71 11.20 83.48 10.57L83.48 10.57L79.09 10.57L78.20 13.05L76.79 13.05L76.79 13.05Q77.35 11.51 77.84 10.20L77.84 10.20L77.84 10.20Q78.33 8.89 78.80 7.71L78.80 7.71L78.80 7.71Q79.27 6.54 79.73 5.47L79.73 5.47L79.73 5.47Q80.19 4.40 80.70 3.35L80.70 3.35L81.94 3.35L81.94 3.35Q82.45 4.40 82.91 5.47L82.91 5.47L82.91 5.47Q83.37 6.54 83.84 7.71L83.84 7.71L83.84 7.71Q84.31 8.89 84.80 10.20L84.80 10.20L84.80 10.20Q85.29 11.51 85.85 13.05L85.85 13.05ZM79.48 9.45L83.09 9.45L83.09 9.45Q82.64 8.23 82.20 7.09L82.20 7.09L82.20 7.09Q81.76 5.95 81.28 4.90L81.28 4.90L81.28 4.90Q80.79 5.95 80.35 7.09L80.35 7.09L80.35 7.09Q79.91 8.23 79.48 9.45L79.48 9.45ZM91.64 12.63L91.64 12.32L91.64 12.32Q91.48 12.43 90.99 12.61L90.99 12.61L90.99 12.61Q90.51 12.78 89.87 12.78L89.87 12.78L89.87 12.78Q89.21 12.78 88.63 12.57L88.63 12.57L88.63 12.57Q88.05 12.36 87.61 11.92L87.61 11.92L87.61 11.92Q87.18 11.48 86.93 10.82L86.93 10.82L86.93 10.82Q86.67 10.16 86.67 9.25L86.67 9.25L86.67 9.25Q86.67 8.46 86.91 7.79L86.91 7.79L86.91 7.79Q87.15 7.13 87.61 6.64L87.61 6.64L87.61 6.64Q88.06 6.16 88.72 5.89L88.72 5.89L88.72 5.89Q89.38 5.61 90.20 5.61L90.20 5.61L90.20 5.61Q91.11 5.61 91.79 5.75L91.79 5.75L91.79 5.75Q92.47 5.88 92.93 5.99L92.93 5.99L92.93 12.49L92.93 12.49Q92.93 14.17 92.06 14.92L92.06 14.92L92.06 14.92Q91.20 15.68 89.43 15.68L89.43 15.68L89.43 15.68Q88.75 15.68 88.14 15.57L88.14 15.57L88.14 15.57Q87.53 15.46 87.08 15.30L87.08 15.30L87.32 14.17L87.32 14.17Q87.71 14.32 88.28 14.44L88.28 14.44L88.28 14.44Q88.84 14.56 89.46 14.56L89.46 14.56L89.46 14.56Q90.62 14.56 91.13 14.10L91.13 14.10L91.13 14.10Q91.64 13.64 91.64 12.63L91.64 12.63ZM91.63 11.17L91.63 6.92L91.63 6.92Q91.43 6.86 91.11 6.81L91.11 6.81L91.11 6.81Q90.78 6.76 90.22 6.76L90.22 6.76L90.22 6.76Q89.17 6.76 88.60 7.45L88.60 7.45L88.60 7.45Q88.03 8.13 88.03 9.27L88.03 9.27L88.03 9.27Q88.03 9.90 88.19 10.35L88.19 10.35L88.19 10.35Q88.35 10.79 88.63 11.09L88.63 11.09L88.63 11.09Q88.90 11.38 89.26 11.52L89.26 11.52L89.26 11.52Q89.61 11.66 89.99 11.66L89.99 11.66L89.99 11.66Q90.51 11.66 90.94 11.52L90.94 11.52L90.94 11.52Q91.38 11.37 91.63 11.17L91.63 11.17ZM97.86 5.61L97.86 5.61L97.86 5.61Q98.03 5.61 98.25 5.63L98.25 5.63L98.25 5.63Q98.46 5.66 98.67 5.69L98.67 5.69L98.67 5.69Q98.88 5.73 99.06 5.76L99.06 5.76L99.06 5.76Q99.23 5.80 99.32 5.82L99.32 5.82L99.09 6.96L99.09 6.96Q98.94 6.90 98.58 6.83L98.58 6.83L98.58 6.83Q98.22 6.75 97.66 6.75L97.66 6.75L97.66 6.75Q97.30 6.75 96.94 6.83L96.94 6.83L96.94 6.83Q96.59 6.90 96.47 6.93L96.47 6.93L96.47 13.05L95.17 13.05L95.17 6.08L95.17 6.08Q95.63 5.91 96.32 5.76L96.32 5.76L96.32 5.76Q97.01 5.61 97.86 5.61ZM101.88 5.77L101.88 13.05L100.58 13.05L100.58 5.77L101.88 5.77ZM101.22 4.45L101.22 4.45L101.22 4.45Q100.87 4.45 100.63 4.22L100.63 4.22L100.63 4.22Q100.38 3.99 100.38 3.60L100.38 3.60L100.38 3.60Q100.38 3.21 100.63 2.97L100.63 2.97L100.63 2.97Q100.87 2.74 101.22 2.74L101.22 2.74L101.22 2.74Q101.57 2.74 101.81 2.97L101.81 2.97L101.81 2.97Q102.06 3.21 102.06 3.60L102.06 3.60L102.06 3.60Q102.06 3.99 101.81 4.22L101.81 4.22L101.81 4.22Q101.57 4.45 101.22 4.45ZM107.28 13.22L107.28 13.22L107.28 13.22Q106.40 13.22 105.73 12.94L105.73 12.94L105.73 12.94Q105.07 12.66 104.62 12.15L104.62 12.15L104.62 12.15Q104.16 11.65 103.94 10.96L103.94 10.96L103.94 10.96Q103.71 10.26 103.71 9.42L103.71 9.42L103.71 9.42Q103.71 8.58 103.96 7.88L103.96 7.88L103.96 7.88Q104.20 7.18 104.65 6.67L104.65 6.67L104.65 6.67Q105.10 6.16 105.75 5.87L105.75 5.87L105.75 5.87Q106.40 5.59 107.20 5.59L107.20 5.59L107.20 5.59Q107.69 5.59 108.18 5.67L108.18 5.67L108.18 5.67Q108.67 5.75 109.12 5.94L109.12 5.94L108.82 7.04L108.82 7.04Q108.53 6.90 108.14 6.82L108.14 6.82L108.14 6.82Q107.76 6.73 107.32 6.73L107.32 6.73L107.32 6.73Q106.23 6.73 105.65 7.42L105.65 7.42L105.65 7.42Q105.07 8.11 105.07 9.42L105.07 9.42L105.07 9.42Q105.07 10.01 105.20 10.50L105.20 10.50L105.20 10.50Q105.34 10.99 105.62 11.34L105.62 11.34L105.62 11.34Q105.91 11.69 106.36 11.88L106.36 11.88L106.36 11.88Q106.81 12.07 107.45 12.07L107.45 12.07L107.45 12.07Q107.97 12.07 108.39 11.97L108.39 11.97L108.39 11.97Q108.81 11.87 109.05 11.76L109.05 11.76L109.23 12.85L109.23 12.85Q109.12 12.92 108.91 12.98L108.91 12.98L108.91 12.98Q108.70 13.05 108.43 13.10L108.43 13.10L108.43 13.10Q108.16 13.15 107.86 13.18L107.86 13.18L107.86 13.18Q107.56 13.22 107.28 13.22ZM116.42 5.77L116.42 12.84L116.42 12.84Q115.98 12.95 115.24 13.08L115.24 13.08L115.24 13.08Q114.51 13.20 113.54 13.20L113.54 13.20L113.54 13.20Q112.70 13.20 112.13 12.96L112.13 12.96L112.13 12.96Q111.55 12.71 111.20 12.26L111.20 12.26L111.20 12.26Q110.85 11.82 110.70 11.21L110.70 11.21L110.70 11.21Q110.54 10.60 110.54 9.86L110.54 9.86L110.54 5.77L111.85 5.77L111.85 9.58L111.85 9.58Q111.85 10.91 112.27 11.48L112.27 11.48L112.27 11.48Q112.69 12.05 113.68 12.05L113.68 12.05L113.68 12.05Q113.89 12.05 114.11 12.04L114.11 12.04L114.11 12.04Q114.34 12.03 114.53 12.01L114.53 12.01L114.53 12.01Q114.73 11.98 114.89 11.96L114.89 11.96L114.89 11.96Q115.05 11.94 115.12 11.91L115.12 11.91L115.12 5.77L116.42 5.77ZM121.03 12.10L120.85 13.19L120.85 13.19Q119.64 13.16 119.14 12.67L119.14 12.67L119.14 12.67Q118.64 12.18 118.64 11.14L118.64 11.14L118.64 2.41L119.94 2.18L119.94 10.93L119.94 10.93Q119.94 11.26 119.99 11.47L119.99 11.47L119.99 11.47Q120.05 11.68 120.18 11.80L120.18 11.80L120.18 11.80Q120.30 11.93 120.51 11.99L120.51 11.99L120.51 11.99Q120.72 12.05 121.03 12.10L121.03 12.10ZM123.70 3.51L123.70 5.77L126.46 5.77L126.46 6.86L123.70 6.86L123.70 10.22L123.70 10.22Q123.70 10.77 123.79 11.12L123.79 11.12L123.79 11.12Q123.87 11.48 124.04 11.68L124.04 11.68L124.04 11.68Q124.21 11.89 124.46 11.97L124.46 11.97L124.46 11.97Q124.71 12.05 125.05 12.05L125.05 12.05L125.05 12.05Q125.64 12.05 125.99 11.92L125.99 11.92L125.99 11.92Q126.35 11.79 126.49 11.73L126.49 11.73L126.74 12.81L126.74 12.81Q126.55 12.91 126.06 13.05L126.06 13.05L126.06 13.05Q125.57 13.20 124.94 13.20L124.94 13.20L124.94 13.20Q124.19 13.20 123.71 13.01L123.71 13.01L123.71 13.01Q123.23 12.82 122.93 12.45L122.93 12.45L122.93 12.45Q122.64 12.07 122.52 11.52L122.52 11.52L122.52 11.52Q122.40 10.96 122.40 10.23L122.40 10.23L122.40 3.74L123.70 3.51ZM133.91 5.77L133.91 12.84L133.91 12.84Q133.46 12.95 132.73 13.08L132.73 13.08L132.73 13.08Q131.99 13.20 131.03 13.20L131.03 13.20L131.03 13.20Q130.19 13.20 129.61 12.96L129.61 12.96L129.61 12.96Q129.04 12.71 128.69 12.26L128.69 12.26L128.69 12.26Q128.34 11.82 128.18 11.21L128.18 11.21L128.18 11.21Q128.03 10.60 128.03 9.86L128.03 9.86L128.03 5.77L129.33 5.77L129.33 9.58L129.33 9.58Q129.33 10.91 129.75 11.48L129.75 11.48L129.75 11.48Q130.17 12.05 131.17 12.05L131.17 12.05L131.17 12.05Q131.38 12.05 131.60 12.04L131.60 12.04L131.60 12.04Q131.82 12.03 132.02 12.01L132.02 12.01L132.02 12.01Q132.22 11.98 132.38 11.96L132.38 11.96L132.38 11.96Q132.54 11.94 132.61 11.91L132.61 11.91L132.61 5.77L133.91 5.77ZM138.84 5.61L138.84 5.61L138.84 5.61Q139.01 5.61 139.22 5.63L139.22 5.63L139.22 5.63Q139.44 5.66 139.65 5.69L139.65 5.69L139.65 5.69Q139.86 5.73 140.03 5.76L140.03 5.76L140.03 5.76Q140.21 5.80 140.29 5.82L140.29 5.82L140.07 6.96L140.07 6.96Q139.92 6.90 139.56 6.83L139.56 6.83L139.56 6.83Q139.20 6.75 138.64 6.75L138.64 6.75L138.64 6.75Q138.28 6.75 137.92 6.83L137.92 6.83L137.92 6.83Q137.56 6.90 137.45 6.93L137.45 6.93L137.45 13.05L136.15 13.05L136.15 6.08L136.15 6.08Q136.61 5.91 137.30 5.76L137.30 5.76L137.30 5.76Q137.98 5.61 138.84 5.61ZM144.02 12.11L144.02 12.11L144.02 12.11Q144.48 12.11 144.84 12.09L144.84 12.09L144.84 12.09Q145.19 12.07 145.43 12.01L145.43 12.01L145.43 9.84L145.43 9.84Q145.29 9.77 144.98 9.72L144.98 9.72L144.98 9.72Q144.66 9.67 144.21 9.67L144.21 9.67L144.21 9.67Q143.92 9.67 143.59 9.72L143.59 9.72L143.59 9.72Q143.26 9.76 142.99 9.89L142.99 9.89L142.99 9.89Q142.72 10.02 142.53 10.25L142.53 10.25L142.53 10.25Q142.35 10.49 142.35 10.86L142.35 10.86L142.35 10.86Q142.35 11.56 142.80 11.84L142.80 11.84L142.80 11.84Q143.25 12.11 144.02 12.11ZM143.91 5.59L143.91 5.59L143.91 5.59Q144.69 5.59 145.23 5.79L145.23 5.79L145.23 5.79Q145.77 5.99 146.10 6.36L146.10 6.36L146.10 6.36Q146.43 6.73 146.57 7.25L146.57 7.25L146.57 7.25Q146.71 7.76 146.71 8.37L146.71 8.37L146.71 12.92L146.71 12.92Q146.54 12.95 146.24 13.00L146.24 13.00L146.24 13.00Q145.94 13.05 145.56 13.09L145.56 13.09L145.56 13.09Q145.18 13.13 144.74 13.17L144.74 13.17L144.74 13.17Q144.30 13.20 143.86 13.20L143.86 13.20L143.86 13.20Q143.25 13.20 142.73 13.08L142.73 13.08L142.73 13.08Q142.21 12.95 141.83 12.68L141.83 12.68L141.83 12.68Q141.46 12.40 141.25 11.96L141.25 11.96L141.25 11.96Q141.04 11.51 141.04 10.88L141.04 10.88L141.04 10.88Q141.04 10.28 141.28 9.84L141.28 9.84L141.28 9.84Q141.53 9.41 141.95 9.14L141.95 9.14L141.95 9.14Q142.37 8.88 142.93 8.75L142.93 8.75L142.93 8.75Q143.49 8.62 144.10 8.62L144.10 8.62L144.10 8.62Q144.30 8.62 144.51 8.64L144.51 8.64L144.51 8.64Q144.72 8.67 144.91 8.70L144.91 8.70L144.91 8.70Q145.10 8.74 145.24 8.76L145.24 8.76L145.24 8.76Q145.38 8.79 145.43 8.81L145.43 8.81L145.43 8.44L145.43 8.44Q145.43 8.12 145.36 7.80L145.36 7.80L145.36 7.80Q145.29 7.49 145.11 7.25L145.11 7.25L145.11 7.25Q144.93 7 144.61 6.85L144.61 6.85L144.61 6.85Q144.30 6.71 143.79 6.71L143.79 6.71L143.79 6.71Q143.15 6.71 142.67 6.80L142.67 6.80L142.67 6.80Q142.18 6.89 141.95 6.99L141.95 6.99L141.79 5.91L141.79 5.91Q142.04 5.80 142.63 5.69L142.63 5.69L142.63 5.69Q143.22 5.59 143.91 5.59ZM151.23 12.10L151.05 13.19L151.05 13.19Q149.84 13.16 149.34 12.67L149.34 12.67L149.34 12.67Q148.83 12.18 148.83 11.14L148.83 11.14L148.83 2.41L150.14 2.18L150.14 10.93L150.14 10.93Q150.14 11.26 150.19 11.47L150.19 11.47L150.19 11.47Q150.25 11.68 150.37 11.80L150.37 11.80L150.37 11.80Q150.50 11.93 150.71 11.99L150.71 11.99L150.71 11.99Q150.92 12.05 151.23 12.10L151.23 12.10ZM158.26 12.08L158.26 12.08L158.26 12.08Q160.38 12.08 160.38 10.63L160.38 10.63L160.38 10.63Q160.38 10.18 160.19 9.86L160.19 9.86L160.19 9.86Q160.01 9.55 159.68 9.32L159.68 9.32L159.68 9.32Q159.36 9.09 158.95 8.92L158.95 8.92L158.95 8.92Q158.54 8.75 158.07 8.58L158.07 8.58L158.07 8.58Q157.54 8.40 157.07 8.17L157.07 8.17L157.07 8.17Q156.59 7.94 156.24 7.62L156.24 7.62L156.24 7.62Q155.89 7.31 155.69 6.87L155.69 6.87L155.69 6.87Q155.48 6.44 155.48 5.82L155.48 5.82L155.48 5.82Q155.48 4.55 156.35 3.84L156.35 3.84L156.35 3.84Q157.22 3.12 158.75 3.12L158.75 3.12L158.75 3.12Q159.63 3.12 160.35 3.31L160.35 3.31L160.35 3.31Q161.07 3.50 161.41 3.72L161.41 3.72L160.97 4.83L160.97 4.83Q160.68 4.65 160.10 4.47L160.10 4.47L160.10 4.47Q159.52 4.30 158.75 4.30L158.75 4.30L158.75 4.30Q158.35 4.30 158.02 4.38L158.02 4.38L158.02 4.38Q157.68 4.47 157.43 4.63L157.43 4.63L157.43 4.63Q157.18 4.80 157.03 5.06L157.03 5.06L157.03 5.06Q156.88 5.32 156.88 5.67L156.88 5.67L156.88 5.67Q156.88 6.06 157.04 6.33L157.04 6.33L157.04 6.33Q157.19 6.59 157.47 6.80L157.47 6.80L157.47 6.80Q157.75 7 158.12 7.17L158.12 7.17L158.12 7.17Q158.49 7.34 158.94 7.50L158.94 7.50L158.94 7.50Q159.57 7.76 160.10 8.01L160.10 8.01L160.10 8.01Q160.62 8.26 161.01 8.61L161.01 8.61L161.01 8.61Q161.39 8.96 161.60 9.44L161.60 9.44L161.60 9.44Q161.81 9.93 161.81 10.61L161.81 10.61L161.81 10.61Q161.81 11.89 160.88 12.57L160.88 12.57L160.88 12.57Q159.95 13.26 158.26 13.26L158.26 13.26L158.26 13.26Q157.68 13.26 157.20 13.18L157.20 13.18L157.20 13.18Q156.72 13.10 156.34 13.00L156.34 13.00L156.34 13.00Q155.96 12.89 155.69 12.78L155.69 12.78L155.69 12.78Q155.41 12.66 155.26 12.57L155.26 12.57L155.67 11.45L155.67 11.45Q155.99 11.63 156.65 11.86L156.65 11.86L156.65 11.86Q157.30 12.08 158.26 12.08ZM169.79 9.41L169.79 9.41L169.79 9.41Q169.79 10.28 169.54 10.98L169.54 10.98L169.54 10.98Q169.29 11.68 168.83 12.18L168.83 12.18L168.83 12.18Q168.38 12.68 167.75 12.96L167.75 12.96L167.75 12.96Q167.12 13.23 166.38 13.23L166.38 13.23L166.38 13.23Q165.63 13.23 165.00 12.96L165.00 12.96L165.00 12.96Q164.37 12.68 163.92 12.18L163.92 12.18L163.92 12.18Q163.46 11.68 163.21 10.98L163.21 10.98L163.21 10.98Q162.96 10.28 162.96 9.41L162.96 9.41L162.96 9.41Q162.96 8.55 163.21 7.85L163.21 7.85L163.21 7.85Q163.46 7.14 163.92 6.64L163.92 6.64L163.92 6.64Q164.37 6.13 165.00 5.86L165.00 5.86L165.00 5.86Q165.63 5.59 166.38 5.59L166.38 5.59L166.38 5.59Q167.12 5.59 167.75 5.86L167.75 5.86L167.75 5.86Q168.38 6.13 168.83 6.64L168.83 6.64L168.83 6.64Q169.29 7.14 169.54 7.85L169.54 7.85L169.54 7.85Q169.79 8.55 169.79 9.41ZM168.43 9.41L168.43 9.41L168.43 9.41Q168.43 8.18 167.88 7.46L167.88 7.46L167.88 7.46Q167.33 6.73 166.38 6.73L166.38 6.73L166.38 6.73Q165.42 6.73 164.87 7.46L164.87 7.46L164.87 7.46Q164.32 8.18 164.32 9.41L164.32 9.41L164.32 9.41Q164.32 10.64 164.87 11.36L164.87 11.36L164.87 11.36Q165.42 12.08 166.38 12.08L166.38 12.08L166.38 12.08Q167.33 12.08 167.88 11.36L167.88 11.36L167.88 11.36Q168.43 10.64 168.43 9.41ZM173.99 12.10L173.81 13.19L173.81 13.19Q172.61 13.16 172.10 12.67L172.10 12.67L172.10 12.67Q171.60 12.18 171.60 11.14L171.60 11.14L171.60 2.41L172.90 2.18L172.90 10.93L172.90 10.93Q172.90 11.26 172.96 11.47L172.96 11.47L172.96 11.47Q173.01 11.68 173.14 11.80L173.14 11.80L173.14 11.80Q173.26 11.93 173.47 11.99L173.47 11.99L173.47 11.99Q173.68 12.05 173.99 12.10L173.99 12.10ZM181.24 5.77L181.24 12.84L181.24 12.84Q180.80 12.95 180.06 13.08L180.06 13.08L180.06 13.08Q179.33 13.20 178.36 13.20L178.36 13.20L178.36 13.20Q177.52 13.20 176.95 12.96L176.95 12.96L176.95 12.96Q176.37 12.71 176.02 12.26L176.02 12.26L176.02 12.26Q175.67 11.82 175.52 11.21L175.52 11.21L175.52 11.21Q175.36 10.60 175.36 9.86L175.36 9.86L175.36 5.77L176.67 5.77L176.67 9.58L176.67 9.58Q176.67 10.91 177.09 11.48L177.09 11.48L177.09 11.48Q177.51 12.05 178.50 12.05L178.50 12.05L178.50 12.05Q178.71 12.05 178.93 12.04L178.93 12.04L178.93 12.04Q179.16 12.03 179.35 12.01L179.35 12.01L179.35 12.01Q179.55 11.98 179.71 11.96L179.71 11.96L179.71 11.96Q179.87 11.94 179.94 11.91L179.94 11.91L179.94 5.77L181.24 5.77ZM184.70 3.51L184.70 5.77L187.46 5.77L187.46 6.86L184.70 6.86L184.70 10.22L184.70 10.22Q184.70 10.77 184.79 11.12L184.79 11.12L184.79 11.12Q184.87 11.48 185.04 11.68L185.04 11.68L185.04 11.68Q185.21 11.89 185.46 11.97L185.46 11.97L185.46 11.97Q185.71 12.05 186.05 12.05L186.05 12.05L186.05 12.05Q186.63 12.05 186.99 11.92L186.99 11.92L186.99 11.92Q187.35 11.79 187.49 11.73L187.49 11.73L187.74 12.81L187.74 12.81Q187.54 12.91 187.05 13.05L187.05 13.05L187.05 13.05Q186.56 13.20 185.93 13.20L185.93 13.20L185.93 13.20Q185.19 13.20 184.71 13.01L184.71 13.01L184.71 13.01Q184.23 12.82 183.93 12.45L183.93 12.45L183.93 12.45Q183.64 12.07 183.52 11.52L183.52 11.52L183.52 11.52Q183.40 10.96 183.40 10.23L183.40 10.23L183.40 3.74L184.70 3.51ZM190.41 5.77L190.41 13.05L189.11 13.05L189.11 5.77L190.41 5.77ZM189.76 4.45L189.76 4.45L189.76 4.45Q189.41 4.45 189.16 4.22L189.16 4.22L189.16 4.22Q188.92 3.99 188.92 3.60L188.92 3.60L188.92 3.60Q188.92 3.21 189.16 2.97L189.16 2.97L189.16 2.97Q189.41 2.74 189.76 2.74L189.76 2.74L189.76 2.74Q190.11 2.74 190.35 2.97L190.35 2.97L190.35 2.97Q190.60 3.21 190.60 3.60L190.60 3.60L190.60 3.60Q190.60 3.99 190.35 4.22L190.35 4.22L190.35 4.22Q190.11 4.45 189.76 4.45ZM199.08 9.41L199.08 9.41L199.08 9.41Q199.08 10.28 198.83 10.98L198.83 10.98L198.83 10.98Q198.58 11.68 198.12 12.18L198.12 12.18L198.12 12.18Q197.67 12.68 197.04 12.96L197.04 12.96L197.04 12.96Q196.41 13.23 195.66 13.23L195.66 13.23L195.66 13.23Q194.92 13.23 194.29 12.96L194.29 12.96L194.29 12.96Q193.66 12.68 193.21 12.18L193.21 12.18L193.21 12.18Q192.75 11.68 192.50 10.98L192.50 10.98L192.50 10.98Q192.25 10.28 192.25 9.41L192.25 9.41L192.25 9.41Q192.25 8.55 192.50 7.85L192.50 7.85L192.50 7.85Q192.75 7.14 193.21 6.64L193.21 6.64L193.21 6.64Q193.66 6.13 194.29 5.86L194.29 5.86L194.29 5.86Q194.92 5.59 195.66 5.59L195.66 5.59L195.66 5.59Q196.41 5.59 197.04 5.86L197.04 5.86L197.04 5.86Q197.67 6.13 198.12 6.64L198.12 6.64L198.12 6.64Q198.58 7.14 198.83 7.85L198.83 7.85L198.83 7.85Q199.08 8.55 199.08 9.41ZM197.72 9.41L197.72 9.41L197.72 9.41Q197.72 8.18 197.17 7.46L197.17 7.46L197.17 7.46Q196.62 6.73 195.66 6.73L195.66 6.73L195.66 6.73Q194.71 6.73 194.16 7.46L194.16 7.46L194.16 7.46Q193.61 8.18 193.61 9.41L193.61 9.41L193.61 9.41Q193.61 10.64 194.16 11.36L194.16 11.36L194.16 11.36Q194.71 12.08 195.66 12.08L195.66 12.08L195.66 12.08Q196.62 12.08 197.17 11.36L197.17 11.36L197.17 11.36Q197.72 10.64 197.72 9.41ZM200.91 13.05L200.91 5.98L200.91 5.98Q201.36 5.87 202.10 5.74L202.10 5.74L202.10 5.74Q202.85 5.61 203.81 5.61L203.81 5.61L203.81 5.61Q204.68 5.61 205.25 5.86L205.25 5.86L205.25 5.86Q205.83 6.10 206.17 6.54L206.17 6.54L206.17 6.54Q206.51 6.99 206.65 7.60L206.65 7.60L206.65 7.60Q206.79 8.22 206.79 8.96L206.79 8.96L206.79 13.05L205.49 13.05L205.49 9.24L205.49 9.24Q205.49 8.57 205.40 8.09L205.40 8.09L205.40 8.09Q205.31 7.62 205.10 7.32L205.10 7.32L205.10 7.32Q204.89 7.03 204.54 6.89L204.54 6.89L204.54 6.89Q204.19 6.76 203.67 6.76L203.67 6.76L203.67 6.76Q203.46 6.76 203.24 6.78L203.24 6.78L203.24 6.78Q203.01 6.79 202.81 6.81L202.81 6.81L202.81 6.81Q202.61 6.83 202.45 6.86L202.45 6.86L202.45 6.86Q202.29 6.89 202.22 6.90L202.22 6.90L202.22 13.05L200.91 13.05ZM210.64 12.11L210.64 12.11L210.64 12.11Q211.44 12.11 211.83 11.90L211.83 11.90L211.83 11.90Q212.21 11.69 212.21 11.23L212.21 11.23L212.21 11.23Q212.21 10.75 211.83 10.47L211.83 10.47L211.83 10.47Q211.46 10.19 210.59 9.84L210.59 9.84L210.59 9.84Q210.17 9.67 209.78 9.50L209.78 9.50L209.78 9.50Q209.40 9.32 209.12 9.09L209.12 9.09L209.12 9.09Q208.84 8.85 208.67 8.51L208.67 8.51L208.67 8.51Q208.50 8.18 208.50 7.69L208.50 7.69L208.50 7.69Q208.50 6.72 209.22 6.15L209.22 6.15L209.22 6.15Q209.93 5.59 211.16 5.59L211.16 5.59L211.16 5.59Q211.47 5.59 211.78 5.62L211.78 5.62L211.78 5.62Q212.09 5.66 212.35 5.71L212.35 5.71L212.35 5.71Q212.62 5.75 212.82 5.81L212.82 5.81L212.82 5.81Q213.02 5.87 213.14 5.91L213.14 5.91L212.90 7.03L212.90 7.03Q212.69 6.92 212.24 6.80L212.24 6.80L212.24 6.80Q211.79 6.68 211.16 6.68L211.16 6.68L211.16 6.68Q210.62 6.68 210.21 6.89L210.21 6.89L210.21 6.89Q209.80 7.11 209.80 7.57L209.80 7.57L209.80 7.57Q209.80 7.81 209.90 7.99L209.90 7.99L209.90 7.99Q209.99 8.18 210.18 8.32L210.18 8.32L210.18 8.32Q210.36 8.47 210.64 8.60L210.64 8.60L210.64 8.60Q210.92 8.72 211.32 8.86L211.32 8.86L211.32 8.86Q211.83 9.06 212.24 9.25L212.24 9.25L212.24 9.25Q212.65 9.44 212.93 9.69L212.93 9.69L212.93 9.69Q213.22 9.94 213.37 10.30L213.37 10.30L213.37 10.30Q213.53 10.65 213.53 11.17L213.53 11.17L213.53 11.17Q213.53 12.18 212.78 12.70L212.78 12.70L212.78 12.70Q212.03 13.22 210.64 13.22L210.64 13.22L210.64 13.22Q209.68 13.22 209.13 13.05L209.13 13.05L209.13 13.05Q208.59 12.89 208.39 12.81L208.39 12.81L208.63 11.69L208.63 11.69Q208.85 11.77 209.34 11.94L209.34 11.94L209.34 11.94Q209.83 12.11 210.64 12.11Z"></path></g></svg>