<svg data-v-29081953="" xmlns="http://www.w3.org/2000/svg" viewBox="0 0 300 300"><!----><defs data-v-29081953=""><!----></defs><rect data-v-29081953="" fill="#00242C" x="0" y="0" width="300px" height="300px" class="logo-background-square"></rect><defs data-v-29081953=""><!----></defs><g data-v-29081953="" id="574ae6d6-7762-4ddc-83f5-ab5540d32552" fill="#FFFFFF" transform="matrix(2.717843654046857,0,0,2.717843654046857,114.45947391335262,118.08059077459583)"><path d="M4.16 6.22L4.16 6.22L4.16 6.22Q3.57 6.22 3.22 6.80L3.22 6.80L3.22 6.80Q2.88 7.38 2.84 8.50L2.84 8.50L5.26 8.50L5.26 8.50Q5.26 7.97 5.20 7.55L5.20 7.55L5.20 7.55Q5.14 7.12 5.01 6.83L5.01 6.83L5.01 6.83Q4.87 6.54 4.67 6.38L4.67 6.38L4.67 6.38Q4.46 6.22 4.16 6.22ZM4.29 13.13L4.29 13.13L4.29 13.13Q3.40 13.13 2.72 12.87L2.72 12.87L2.72 12.87Q2.04 12.61 1.58 12.12L1.58 12.12L1.58 12.12Q1.12 11.63 0.89 10.91L0.89 10.91L0.89 10.91Q0.66 10.20 0.66 9.28L0.66 9.28L0.66 9.28Q0.66 8.30 0.89 7.55L0.89 7.55L0.89 7.55Q1.12 6.81 1.57 6.31L1.57 6.31L1.57 6.31Q2.01 5.81 2.66 5.56L2.66 5.56L2.66 5.56Q3.30 5.31 4.13 5.31L4.13 5.31L4.13 5.31Q4.89 5.31 5.50 5.53L5.50 5.53L5.50 5.53Q6.10 5.74 6.53 6.17L6.53 6.17L6.53 6.17Q6.95 6.59 7.18 7.22L7.18 7.22L7.18 7.22Q7.40 7.85 7.40 8.68L7.40 8.68L7.40 9.40L2.82 9.40L2.82 9.40Q2.84 10.10 2.97 10.61L2.97 10.61L2.97 10.61Q3.10 11.12 3.34 11.44L3.34 11.44L3.34 11.44Q3.58 11.77 3.91 11.93L3.91 11.93L3.91 11.93Q4.25 12.09 4.69 12.09L4.69 12.09L4.69 12.09Q5.05 12.09 5.36 12.00L5.36 12.00L5.36 12.00Q5.67 11.92 5.92 11.76L5.92 11.76L5.92 11.76Q6.17 11.61 6.35 11.40L6.35 11.40L6.35 11.40Q6.54 11.19 6.67 10.95L6.67 10.95L6.67 10.95Q7.04 11.16 7.04 11.63L7.04 11.63L7.04 11.63Q7.04 11.94 6.88 12.21L6.88 12.21L6.88 12.21Q6.71 12.48 6.37 12.68L6.37 12.68L6.37 12.68Q6.03 12.89 5.51 13.01L5.51 13.01L5.51 13.01Q5.00 13.13 4.29 13.13ZM11.89 7.92L14.07 5.54L14.07 5.54Q14.29 5.30 14.45 5.11L14.45 5.11L14.45 5.11Q14.60 4.92 14.69 4.75L14.69 4.75L14.69 4.75Q14.79 4.58 14.83 4.43L14.83 4.43L14.83 4.43Q14.87 4.28 14.87 4.14L14.87 4.14L14.87 4.14Q14.87 3.90 14.69 3.81L14.69 3.81L14.69 3.81Q14.51 3.73 14.08 3.73L14.08 3.73L14.08 3.00L17.88 3.00L17.88 3.73L17.88 3.73Q17.59 3.73 17.33 3.81L17.33 3.81L17.33 3.81Q17.08 3.90 16.83 4.07L16.83 4.07L16.83 4.07Q16.58 4.23 16.34 4.46L16.34 4.46L16.34 4.46Q16.11 4.68 15.86 4.96L15.86 4.96L14.01 6.99L16.62 11.12L16.62 11.12Q16.82 11.45 17.01 11.67L17.01 11.67L17.01 11.67Q17.20 11.88 17.39 12.01L17.39 12.01L17.39 12.01Q17.58 12.14 17.78 12.20L17.78 12.20L17.78 12.20Q17.98 12.25 18.21 12.25L18.21 12.25L18.27 12.25L18.27 13.00L17.51 13.00L17.51 13.00Q16.98 13.00 16.58 12.96L16.58 12.96L16.58 12.96Q16.17 12.93 15.87 12.86L15.87 12.86L15.87 12.86Q15.57 12.79 15.35 12.68L15.35 12.68L15.35 12.68Q15.13 12.58 14.96 12.43L14.96 12.43L14.96 12.43Q14.80 12.29 14.67 12.11L14.67 12.11L14.67 12.11Q14.53 11.93 14.40 11.71L14.40 11.71L12.52 8.49L11.89 8.98L11.89 11.34L11.89 11.34Q11.89 11.64 11.95 11.82L11.95 11.82L11.95 11.82Q12.01 12.00 12.11 12.09L12.11 12.09L12.11 12.09Q12.20 12.19 12.34 12.22L12.34 12.22L12.34 12.22Q12.48 12.25 12.63 12.25L12.63 12.25L13.21 12.25L13.21 13.00L8.38 13.00L8.38 12.25L8.97 12.25L8.97 12.25Q9.12 12.25 9.25 12.22L9.25 12.22L9.25 12.22Q9.38 12.20 9.48 12.11L9.48 12.11L9.48 12.11Q9.58 12.02 9.63 11.86L9.63 11.86L9.63 11.86Q9.69 11.69 9.69 11.42L9.69 11.42L9.69 4.59L9.69 4.59Q9.69 4.31 9.63 4.15L9.63 4.15L9.63 4.15Q9.58 3.98 9.48 3.89L9.48 3.89L9.48 3.89Q9.38 3.80 9.25 3.77L9.25 3.77L9.25 3.77Q9.12 3.74 8.97 3.74L8.97 3.74L8.38 3.74L8.38 3.00L13.21 3.00L13.21 3.74L12.63 3.74L12.63 3.74Q12.48 3.74 12.34 3.77L12.34 3.77L12.34 3.77Q12.20 3.80 12.11 3.90L12.11 3.90L12.11 3.90Q12.01 3.99 11.95 4.17L11.95 4.17L11.95 4.17Q11.89 4.35 11.89 4.65L11.89 4.65L11.89 7.92ZM21.07 10.91L21.07 10.91L21.07 10.91Q21.07 11.51 21.26 11.81L21.26 11.81L21.26 11.81Q21.45 12.11 21.86 12.11L21.86 12.11L21.86 12.11Q22.16 12.11 22.40 11.99L22.40 11.99L22.40 11.99Q22.65 11.86 22.82 11.63L22.82 11.63L22.82 11.63Q23.00 11.40 23.09 11.06L23.09 11.06L23.09 11.06Q23.18 10.73 23.18 10.32L23.18 10.32L23.18 9.27L22.55 9.31L22.55 9.31Q22.13 9.33 21.85 9.44L21.85 9.44L21.85 9.44Q21.56 9.56 21.39 9.75L21.39 9.75L21.39 9.75Q21.22 9.95 21.14 10.24L21.14 10.24L21.14 10.24Q21.07 10.53 21.07 10.91ZM22.31 6.17L22.31 6.17L22.31 6.17Q22.05 6.17 21.86 6.28L21.86 6.28L21.86 6.28Q21.68 6.39 21.57 6.59L21.57 6.59L21.57 6.59Q21.46 6.79 21.42 7.07L21.42 7.07L21.42 7.07Q21.38 7.35 21.38 7.68L21.38 7.68L21.38 7.68Q20.43 7.68 19.96 7.46L19.96 7.46L19.96 7.46Q19.48 7.25 19.48 6.74L19.48 6.74L19.48 6.74Q19.48 6.36 19.71 6.08L19.71 6.08L19.71 6.08Q19.94 5.81 20.33 5.64L20.33 5.64L20.33 5.64Q20.73 5.47 21.25 5.39L21.25 5.39L21.25 5.39Q21.77 5.31 22.37 5.31L22.37 5.31L22.37 5.31Q23.11 5.31 23.66 5.44L23.66 5.44L23.66 5.44Q24.21 5.56 24.57 5.84L24.57 5.84L24.57 5.84Q24.94 6.13 25.12 6.58L25.12 6.58L25.12 6.58Q25.31 7.03 25.31 7.69L25.31 7.69L25.31 11.26L25.31 11.26Q25.31 11.55 25.35 11.74L25.35 11.74L25.35 11.74Q25.40 11.93 25.49 12.04L25.49 12.04L25.49 12.04Q25.59 12.15 25.75 12.20L25.75 12.20L25.75 12.20Q25.92 12.25 26.15 12.25L26.15 12.25L26.20 12.25L26.20 13.00L23.60 13.00L23.30 12.03L23.18 12.03L23.18 12.03Q22.95 12.31 22.74 12.52L22.74 12.52L22.74 12.52Q22.54 12.73 22.31 12.87L22.31 12.87L22.31 12.87Q22.07 13.00 21.78 13.07L21.78 13.07L21.78 13.07Q21.49 13.13 21.10 13.13L21.10 13.13L21.10 13.13Q20.63 13.13 20.23 13.00L20.23 13.00L20.23 13.00Q19.83 12.86 19.53 12.57L19.53 12.57L19.53 12.57Q19.24 12.29 19.07 11.86L19.07 11.86L19.07 11.86Q18.89 11.44 18.89 10.86L18.89 10.86L18.89 10.86Q18.89 9.71 19.68 9.17L19.68 9.17L19.68 9.17Q20.46 8.62 22.03 8.57L22.03 8.57L23.18 8.53L23.18 7.76L23.18 7.76Q23.18 7.41 23.15 7.12L23.15 7.12L23.15 7.12Q23.13 6.82 23.04 6.61L23.04 6.61L23.04 6.61Q22.95 6.40 22.77 6.28L22.77 6.28L22.77 6.28Q22.60 6.17 22.31 6.17ZM35.63 13.00L32.52 13.00L32.52 8.39L32.52 8.39Q32.52 7.94 32.46 7.58L32.46 7.58L32.46 7.58Q32.40 7.23 32.27 6.99L32.27 6.99L32.27 6.99Q32.14 6.75 31.92 6.63L31.92 6.63L31.92 6.63Q31.71 6.50 31.40 6.50L31.40 6.50L31.40 6.50Q31.05 6.50 30.82 6.68L30.82 6.68L30.82 6.68Q30.58 6.86 30.44 7.15L30.44 7.15L30.44 7.15Q30.30 7.45 30.24 7.84L30.24 7.84L30.24 7.84Q30.18 8.24 30.18 8.67L30.18 8.67L30.18 11.34L30.18 11.34Q30.18 11.63 30.25 11.81L30.25 11.81L30.25 11.81Q30.32 11.99 30.45 12.09L30.45 12.09L30.45 12.09Q30.58 12.19 30.77 12.22L30.77 12.22L30.77 12.22Q30.96 12.25 31.19 12.25L31.19 12.25L31.23 12.25L31.23 13.00L26.93 13.00L26.93 12.25L26.96 12.25L26.96 12.25Q27.20 12.25 27.40 12.22L27.40 12.22L27.40 12.22Q27.60 12.19 27.74 12.09L27.74 12.09L27.74 12.09Q27.89 11.98 27.97 11.79L27.97 11.79L27.97 11.79Q28.05 11.60 28.05 11.29L28.05 11.29L28.05 7.14L28.05 7.14Q28.05 6.85 27.98 6.67L27.98 6.67L27.98 6.67Q27.91 6.49 27.78 6.40L27.78 6.40L27.78 6.40Q27.64 6.30 27.46 6.27L27.46 6.27L27.46 6.27Q27.28 6.23 27.04 6.23L27.04 6.23L27.00 6.23L27.00 5.49L29.94 5.49L30.13 6.49L30.19 6.49L30.19 6.49Q30.41 6.09 30.64 5.86L30.64 5.86L30.64 5.86Q30.88 5.63 31.14 5.50L31.14 5.50L31.14 5.50Q31.41 5.38 31.71 5.35L31.71 5.35L31.71 5.35Q32.01 5.31 32.33 5.31L32.33 5.31L32.33 5.31Q32.87 5.31 33.30 5.47L33.30 5.47L33.30 5.47Q33.74 5.63 34.03 5.95L34.03 5.95L34.03 5.95Q34.33 6.28 34.49 6.79L34.49 6.79L34.49 6.79Q34.64 7.30 34.64 8.01L34.64 8.01L34.64 11.26L34.64 11.26Q34.64 11.59 34.70 11.78L34.70 11.78L34.70 11.78Q34.76 11.98 34.88 12.08L34.88 12.08L34.88 12.08Q34.99 12.18 35.17 12.22L35.17 12.22L35.17 12.22Q35.35 12.25 35.59 12.25L35.59 12.25L35.63 12.25L35.63 13.00ZM43.91 9.21L43.91 9.21L43.91 9.21Q43.91 11.19 42.99 12.16L42.99 12.16L42.99 12.16Q42.06 13.13 40.26 13.13L40.26 13.13L40.26 13.13Q39.42 13.13 38.75 12.89L38.75 12.89L38.75 12.89Q38.08 12.65 37.61 12.16L37.61 12.16L37.61 12.16Q37.15 11.68 36.90 10.94L36.90 10.94L36.90 10.94Q36.65 10.20 36.65 9.21L36.65 9.21L36.65 9.21Q36.65 7.24 37.57 6.28L37.57 6.28L37.57 6.28Q38.50 5.31 40.30 5.31L40.30 5.31L40.30 5.31Q41.15 5.31 41.81 5.55L41.81 5.55L41.81 5.55Q42.48 5.79 42.95 6.28L42.95 6.28L42.95 6.28Q43.42 6.76 43.66 7.50L43.66 7.50L43.66 7.50Q43.91 8.23 43.91 9.21ZM38.82 9.21L38.82 9.21L38.82 9.21Q38.82 9.96 38.90 10.53L38.90 10.53L38.90 10.53Q38.98 11.09 39.15 11.48L39.15 11.48L39.15 11.48Q39.33 11.86 39.61 12.06L39.61 12.06L39.61 12.06Q39.89 12.25 40.29 12.25L40.29 12.25L40.29 12.25Q40.69 12.25 40.97 12.06L40.97 12.06L40.97 12.06Q41.25 11.86 41.42 11.48L41.42 11.48L41.42 11.48Q41.60 11.09 41.67 10.53L41.67 10.53L41.67 10.53Q41.75 9.96 41.75 9.21L41.75 9.21L41.75 9.21Q41.75 8.46 41.67 7.90L41.67 7.90L41.67 7.90Q41.59 7.33 41.42 6.96L41.42 6.96L41.42 6.96Q41.24 6.58 40.96 6.40L40.96 6.40L40.96 6.40Q40.68 6.21 40.28 6.21L40.28 6.21L40.28 6.21Q39.87 6.21 39.59 6.40L39.59 6.40L39.59 6.40Q39.31 6.58 39.14 6.96L39.14 6.96L39.14 6.96Q38.97 7.33 38.90 7.90L38.90 7.90L38.90 7.90Q38.82 8.46 38.82 9.21ZM53.55 13.00L50.44 13.00L50.44 8.39L50.44 8.39Q50.44 7.94 50.38 7.58L50.38 7.58L50.38 7.58Q50.32 7.23 50.19 6.99L50.19 6.99L50.19 6.99Q50.05 6.75 49.84 6.63L49.84 6.63L49.84 6.63Q49.62 6.50 49.31 6.50L49.31 6.50L49.31 6.50Q48.97 6.50 48.73 6.68L48.73 6.68L48.73 6.68Q48.50 6.86 48.36 7.15L48.36 7.15L48.36 7.15Q48.22 7.45 48.16 7.84L48.16 7.84L48.16 7.84Q48.10 8.24 48.10 8.67L48.10 8.67L48.10 11.34L48.10 11.34Q48.10 11.63 48.17 11.81L48.17 11.81L48.17 11.81Q48.24 11.99 48.37 12.09L48.37 12.09L48.37 12.09Q48.50 12.19 48.69 12.22L48.69 12.22L48.69 12.22Q48.88 12.25 49.11 12.25L49.11 12.25L49.15 12.25L49.15 13.00L44.85 13.00L44.85 12.25L44.88 12.25L44.88 12.25Q45.12 12.25 45.32 12.22L45.32 12.22L45.32 12.22Q45.51 12.19 45.66 12.09L45.66 12.09L45.66 12.09Q45.81 11.98 45.89 11.79L45.89 11.79L45.89 11.79Q45.97 11.60 45.97 11.29L45.97 11.29L45.97 7.14L45.97 7.14Q45.97 6.85 45.90 6.67L45.90 6.67L45.90 6.67Q45.83 6.49 45.69 6.40L45.69 6.40L45.69 6.40Q45.56 6.30 45.38 6.27L45.38 6.27L45.38 6.27Q45.19 6.23 44.96 6.23L44.96 6.23L44.92 6.23L44.92 5.49L47.86 5.49L48.04 6.49L48.11 6.49L48.11 6.49Q48.32 6.09 48.56 5.86L48.56 5.86L48.56 5.86Q48.79 5.63 49.06 5.50L49.06 5.50L49.06 5.50Q49.33 5.38 49.63 5.35L49.63 5.35L49.63 5.35Q49.92 5.31 50.25 5.31L50.25 5.31L50.25 5.31Q50.79 5.31 51.22 5.47L51.22 5.47L51.22 5.47Q51.65 5.63 51.95 5.95L51.95 5.95L51.95 5.95Q52.25 6.28 52.40 6.79L52.40 6.79L52.40 6.79Q52.56 7.30 52.56 8.01L52.56 8.01L52.56 11.26L52.56 11.26Q52.56 11.59 52.62 11.78L52.62 11.78L52.62 11.78Q52.68 11.98 52.79 12.08L52.79 12.08L52.79 12.08Q52.91 12.18 53.09 12.22L53.09 12.22L53.09 12.22Q53.27 12.25 53.50 12.25L53.50 12.25L53.55 12.25L53.55 13.00Z"></path></g><defs data-v-29081953=""><!----></defs><g data-v-29081953="" id="bbad4cb4-d99d-48c2-9124-7402347e314a" stroke="none" fill="#81E291" transform="matrix(0.7906656349537731,0,0,0.7906656349537731,31.95339655091916,110.46671825231135)"><path d="M11.177 90h78a1 1 0 0 0 0-2h-9.043v-8.633c1.664-.065 4.934-.488 7.086-2.706 2.921-3.011 2.48-8.004 2.46-8.215a1.001 1.001 0 0 0-.93-.903c-.148-.009-2.711-.153-5.232.836a7.985 7.985 0 0 0 .412-2.409c.039-4.375-3.892-7.83-4.059-7.974a1.002 1.002 0 0 0-1.296-.012c-.17.142-4.161 3.526-4.2 7.901-.009.98.188 1.909.491 2.769-2.683-1.104-5.528-.852-5.685-.838a1.001 1.001 0 0 0-.903.93c-.014.211-.306 5.216 2.705 8.139 2.212 2.146 5.48 2.474 7.15 2.491V88H51.446v-8.633c1.665-.065 4.934-.488 7.086-2.706 2.922-3.011 2.48-8.004 2.46-8.215a1.001 1.001 0 0 0-.93-.903c-.148-.009-2.711-.153-5.232.836a7.985 7.985 0 0 0 .412-2.409c.039-4.375-3.892-7.829-4.059-7.974a1 1 0 0 0-1.296-.012c-.17.142-4.161 3.526-4.2 7.901-.009.98.188 1.909.491 2.769-2.683-1.104-5.527-.852-5.684-.838a1.001 1.001 0 0 0-.903.93c-.014.211-.306 5.216 2.705 8.139 2.212 2.146 5.48 2.474 7.15 2.491V88H22.758v-8.633c1.665-.065 4.934-.488 7.086-2.706 2.922-3.011 2.48-8.004 2.46-8.215a1.001 1.001 0 0 0-.93-.903c-.148-.01-2.711-.153-5.232.836a7.985 7.985 0 0 0 .412-2.409c.039-4.375-3.892-7.829-4.059-7.974a1 1 0 0 0-1.296-.012c-.17.142-4.161 3.526-4.2 7.901-.009.98.188 1.909.491 2.769-2.683-1.104-5.527-.852-5.684-.838a1.001 1.001 0 0 0-.903.93c-.014.211-.306 5.216 2.705 8.139 2.212 2.146 5.48 2.474 7.15 2.491V88h-9.581a1 1 0 0 0 0 2zm74.608-14.732c-1.624 1.673-4.262 2.029-5.651 2.095v-.336c.061-1.447.403-3.831 1.913-5.387 1.63-1.679 4.281-2.032 5.667-2.097-.021 1.384-.291 4.037-1.929 5.725zm-6.579-15.123c.984 1.055 2.747 3.298 2.725 5.807-.022 2.497-1.828 4.716-2.831 5.757-.984-1.055-2.747-3.298-2.724-5.807.022-2.497 1.828-4.716 2.83-5.757zm-6.829 15.304c-1.678-1.629-2.032-4.278-2.096-5.664 1.387.023 4.045.297 5.724 1.926 1.679 1.629 2.032 4.281 2.097 5.667-1.384-.021-4.038-.291-5.725-1.929zm-15.28-.181c-1.624 1.673-4.261 2.029-5.65 2.095v-.348c.062-1.448.407-3.824 1.913-5.375 1.629-1.678 4.278-2.032 5.664-2.096-.024 1.387-.298 4.045-1.927 5.724zm-6.579-15.123c.984 1.055 2.747 3.298 2.724 5.807-.022 2.497-1.828 4.716-2.831 5.757-.984-1.055-2.747-3.298-2.724-5.807.022-2.497 1.828-4.716 2.831-5.757zm-6.83 15.304c-1.678-1.629-2.032-4.278-2.096-5.664 1.387.023 4.045.297 5.724 1.926 1.679 1.629 2.032 4.281 2.097 5.667-1.384-.021-4.037-.291-5.725-1.929zm-15.28-.181c-1.624 1.673-4.261 2.029-5.65 2.095v-.345c.062-1.448.407-3.825 1.913-5.378 1.629-1.678 4.278-2.032 5.664-2.096-.023 1.387-.298 4.045-1.927 5.724zM21.83 60.145c.984 1.055 2.747 3.298 2.724 5.807-.022 2.497-1.828 4.716-2.83 5.757-.984-1.055-2.747-3.298-2.725-5.807.022-2.497 1.828-4.716 2.831-5.757zM15 75.449c-1.678-1.629-2.032-4.278-2.096-5.664 1.387.023 4.046.297 5.724 1.926 1.679 1.629 2.032 4.281 2.097 5.667-1.384-.021-4.038-.291-5.725-1.929zM41.866 30.505c0 5.054 4.112 9.167 9.167 9.167S60.2 35.56 60.2 30.505s-4.112-9.167-9.167-9.167-9.167 4.113-9.167 9.167zm16.333 0c0 3.952-3.215 7.167-7.167 7.167s-7.167-3.215-7.167-7.167 3.215-7.167 7.167-7.167 7.167 3.216 7.167 7.167zM51.033 17.029a1 1 0 0 0 1-1V11a1 1 0 0 0-2 0v5.029a1 1 0 0 0 1 1zM42.996 18.424a.998.998 0 0 0 1.364.374 1 1 0 0 0 .374-1.364l-2.49-4.369a1 1 0 0 0-1.738.99l2.49 4.369zM33.74 21.426l4.328 2.562a.997.997 0 0 0 1.369-.351.999.999 0 0 0-.351-1.37l-4.328-2.562a1 1 0 1 0-1.018 1.721zM31.513 31.181l5.028.083h.017a1.001 1.001 0 0 0 .017-2l-5.028-.083h-.017a1.001 1.001 0 0 0-.017 2zM37.858 36.586l-4.41 2.417a1 1 0 0 0 .961 1.754l4.41-2.417a1 1 0 0 0-.961-1.754zM40.291 47.973a1 1 0 0 0 1.376-.328l2.634-4.284a1.001 1.001 0 0 0-1.704-1.048l-2.634 4.284a1.001 1.001 0 0 0 .328 1.376zM49.551 44.94l-.167 5.026a1 1 0 0 0 .966 1.033h.034a1 1 0 0 0 .999-.967l.167-5.026a1 1 0 1 0-1.999-.066zM57.312 42.429a1 1 0 0 0-.419 1.351l2.343 4.45a1 1 0 1 0 1.77-.932l-2.343-4.45a1.002 1.002 0 0 0-1.351-.419zM63.774 37.45a1 1 0 0 0-1.076 1.686l4.239 2.706a1 1 0 1 0 1.076-1.686l-4.239-2.706zM64.492 31.179a.999.999 0 0 0 .949 1.048l5.023.251.051.001a1 1 0 0 0 .049-1.998l-5.023-.251a1.01 1.01 0 0 0-1.049.949zM63.953 24.974c.151 0 .306-.035.45-.107l4.488-2.269a1 1 0 0 0-.903-1.785L63.5 23.082a1 1 0 0 0 .453 1.892zM58.471 19.268a.998.998 0 0 0 1.386-.282l2.775-4.194a1 1 0 0 0-1.668-1.104l-2.775 4.194a1 1 0 0 0 .282 1.386z"></path></g><defs data-v-29081953=""><!----></defs><g data-v-29081953="" id="f2533ffd-94b8-4912-bdd3-3ddbc13f26cc" fill="#FFFFFF" transform="matrix(0.6037496384337661,0,0,0.6037496384337661,115.9996759380835,162.43159153929375)"><path d="M3.70 13.13L3.70 13.13L3.70 13.13Q2.75 13.13 2.13 12.95L2.13 12.95L2.13 12.95Q1.50 12.78 1.12 12.50L1.12 12.50L1.12 12.50Q0.74 12.22 0.58 11.87L0.58 11.87L0.58 11.87Q0.42 11.52 0.42 11.18L0.42 11.18L0.42 11.18Q0.42 10.81 0.55 10.57L0.55 10.57L0.55 10.57Q0.68 10.32 0.91 10.17L0.91 10.17L0.91 10.17Q1.13 10.01 1.41 9.94L1.41 9.94L1.41 9.94Q1.70 9.87 2.00 9.87L2.00 9.87L2.00 9.87Q2.00 10.47 2.15 10.93L2.15 10.93L2.15 10.93Q2.29 11.38 2.54 11.69L2.54 11.69L2.54 11.69Q2.80 11.99 3.15 12.14L3.15 12.14L3.15 12.14Q3.50 12.30 3.92 12.30L3.92 12.30L3.92 12.30Q4.33 12.30 4.65 12.18L4.65 12.18L4.65 12.18Q4.97 12.07 5.20 11.86L5.20 11.86L5.20 11.86Q5.42 11.66 5.54 11.38L5.54 11.38L5.54 11.38Q5.65 11.10 5.65 10.78L5.65 10.78L5.65 10.78Q5.65 10.42 5.51 10.15L5.51 10.15L5.51 10.15Q5.37 9.87 5.08 9.64L5.08 9.64L5.08 9.64Q4.79 9.40 4.34 9.18L4.34 9.18L4.34 9.18Q3.90 8.97 3.32 8.72L3.32 8.72L3.32 8.72Q2.58 8.42 2.08 8.10L2.08 8.10L2.08 8.10Q1.58 7.79 1.27 7.42L1.27 7.42L1.27 7.42Q0.96 7.05 0.83 6.62L0.83 6.62L0.83 6.62Q0.70 6.19 0.70 5.67L0.70 5.67L0.70 5.67Q0.70 5.03 0.96 4.51L0.96 4.51L0.96 4.51Q1.22 3.99 1.67 3.62L1.67 3.62L1.67 3.62Q2.13 3.25 2.76 3.06L2.76 3.06L2.76 3.06Q3.39 2.86 4.13 2.86L4.13 2.86L4.13 2.86Q4.90 2.86 5.46 2.98L5.46 2.98L5.46 2.98Q6.02 3.11 6.39 3.33L6.39 3.33L6.39 3.33Q6.75 3.55 6.93 3.85L6.93 3.85L6.93 3.85Q7.11 4.14 7.11 4.48L7.11 4.48L7.11 4.48Q7.11 4.73 7.00 4.94L7.00 4.94L7.00 4.94Q6.90 5.15 6.68 5.31L6.68 5.31L6.68 5.31Q6.47 5.47 6.14 5.56L6.14 5.56L6.14 5.56Q5.82 5.65 5.39 5.65L5.39 5.65L5.39 5.65Q5.39 5.35 5.31 5.01L5.31 5.01L5.31 5.01Q5.23 4.68 5.05 4.39L5.05 4.39L5.05 4.39Q4.87 4.09 4.59 3.90L4.59 3.90L4.59 3.90Q4.31 3.71 3.90 3.71L3.90 3.71L3.90 3.71Q3.62 3.71 3.37 3.79L3.37 3.79L3.37 3.79Q3.12 3.88 2.93 4.04L2.93 4.04L2.93 4.04Q2.74 4.20 2.63 4.45L2.63 4.45L2.63 4.45Q2.52 4.69 2.52 5.00L2.52 5.00L2.52 5.00Q2.52 5.30 2.62 5.56L2.62 5.56L2.62 5.56Q2.71 5.82 2.97 6.07L2.97 6.07L2.97 6.07Q3.23 6.32 3.67 6.57L3.67 6.57L3.67 6.57Q4.12 6.82 4.83 7.10L4.83 7.10L4.83 7.10Q5.55 7.40 6.06 7.70L6.06 7.70L6.06 7.70Q6.56 8.01 6.89 8.36L6.89 8.36L6.89 8.36Q7.21 8.72 7.36 9.14L7.36 9.14L7.36 9.14Q7.51 9.56 7.51 10.07L7.51 10.07L7.51 10.07Q7.51 10.75 7.24 11.31L7.24 11.31L7.24 11.31Q6.97 11.87 6.47 12.28L6.47 12.28L6.47 12.28Q5.97 12.68 5.27 12.91L5.27 12.91L5.27 12.91Q4.57 13.13 3.70 13.13ZM17.19 13.00L14.40 13.00L14.10 12.00L14.03 12.00L14.03 12.00Q13.82 12.37 13.57 12.59L13.57 12.59L13.57 12.59Q13.32 12.81 13.04 12.93L13.04 12.93L13.04 12.93Q12.76 13.05 12.45 13.09L12.45 13.09L12.45 13.09Q12.14 13.13 11.81 13.13L11.81 13.13L11.81 13.13Q10.72 13.13 10.13 12.46L10.13 12.46L10.13 12.46Q9.55 11.78 9.55 10.36L9.55 10.36L9.55 7.23L9.55 7.23Q9.55 6.92 9.50 6.73L9.50 6.73L9.50 6.73Q9.44 6.54 9.32 6.43L9.32 6.43L9.32 6.43Q9.21 6.32 9.03 6.28L9.03 6.28L9.03 6.28Q8.85 6.23 8.59 6.23L8.59 6.23L8.57 6.23L8.57 5.49L11.68 5.49L11.68 9.97L11.68 9.97Q11.68 10.42 11.73 10.79L11.73 10.79L11.73 10.79Q11.78 11.15 11.90 11.41L11.90 11.41L11.90 11.41Q12.02 11.66 12.23 11.80L12.23 11.80L12.23 11.80Q12.43 11.94 12.74 11.94L12.74 11.94L12.74 11.94Q13.08 11.94 13.32 11.80L13.32 11.80L13.32 11.80Q13.56 11.65 13.72 11.37L13.72 11.37L13.72 11.37Q13.87 11.09 13.94 10.70L13.94 10.70L13.94 10.70Q14.01 10.31 14.01 9.82L14.01 9.82L14.01 7.13L14.01 7.13Q14.01 6.82 13.93 6.64L13.93 6.64L13.93 6.64Q13.85 6.47 13.71 6.37L13.71 6.37L13.71 6.37Q13.58 6.28 13.39 6.26L13.39 6.26L13.39 6.26Q13.21 6.23 13.00 6.23L13.00 6.23L12.96 6.23L12.96 5.49L16.14 5.49L16.14 11.37L16.14 11.37Q16.14 11.68 16.21 11.85L16.21 11.85L16.21 11.85Q16.28 12.02 16.41 12.11L16.41 12.11L16.41 12.11Q16.53 12.20 16.70 12.23L16.70 12.23L16.70 12.23Q16.87 12.25 17.08 12.25L17.08 12.25L17.19 12.25L17.19 13.00ZM20.77 13.13L20.77 13.13L20.77 13.13Q20.02 13.13 19.48 13.01L19.48 13.01L19.48 13.01Q18.94 12.89 18.60 12.67L18.60 12.67L18.60 12.67Q18.27 12.45 18.11 12.15L18.11 12.15L18.11 12.15Q17.96 11.85 17.96 11.50L17.96 11.50L17.96 11.50Q17.96 11.16 18.09 10.95L18.09 10.95L18.09 10.95Q18.22 10.74 18.43 10.62L18.43 10.62L18.43 10.62Q18.63 10.51 18.85 10.47L18.85 10.47L18.85 10.47Q19.08 10.43 19.26 10.43L19.26 10.43L19.26 10.43Q19.26 10.87 19.37 11.22L19.37 11.22L19.37 11.22Q19.48 11.57 19.68 11.81L19.68 11.81L19.68 11.81Q19.88 12.05 20.16 12.18L20.16 12.18L20.16 12.18Q20.43 12.31 20.77 12.31L20.77 12.31L20.77 12.31Q21.14 12.31 21.40 12.24L21.40 12.24L21.40 12.24Q21.66 12.16 21.83 12.03L21.83 12.03L21.83 12.03Q22.00 11.89 22.08 11.72L22.08 11.72L22.08 11.72Q22.16 11.55 22.16 11.35L22.16 11.35L22.16 11.35Q22.16 11.12 22.08 10.94L22.08 10.94L22.08 10.94Q21.99 10.76 21.79 10.60L21.79 10.60L21.79 10.60Q21.59 10.44 21.26 10.28L21.26 10.28L21.26 10.28Q20.93 10.13 20.44 9.96L20.44 9.96L20.44 9.96Q19.87 9.76 19.44 9.54L19.44 9.54L19.44 9.54Q19.00 9.32 18.71 9.03L18.71 9.03L18.71 9.03Q18.41 8.75 18.26 8.38L18.26 8.38L18.26 8.38Q18.10 8.02 18.10 7.55L18.10 7.55L18.10 7.55Q18.10 6.99 18.32 6.57L18.32 6.57L18.32 6.57Q18.53 6.15 18.93 5.88L18.93 5.88L18.93 5.88Q19.33 5.60 19.88 5.46L19.88 5.46L19.88 5.46Q20.43 5.33 21.11 5.33L21.11 5.33L21.11 5.33Q21.77 5.33 22.24 5.44L22.24 5.44L22.24 5.44Q22.70 5.55 23.00 5.74L23.00 5.74L23.00 5.74Q23.29 5.92 23.43 6.15L23.43 6.15L23.43 6.15Q23.56 6.38 23.56 6.62L23.56 6.62L23.56 6.62Q23.56 7.10 23.23 7.34L23.23 7.34L23.23 7.34Q22.90 7.59 22.13 7.59L22.13 7.59L22.13 7.59Q22.13 6.89 21.82 6.50L21.82 6.50L21.82 6.50Q21.51 6.12 20.90 6.12L20.90 6.12L20.90 6.12Q20.68 6.12 20.47 6.17L20.47 6.17L20.47 6.17Q20.26 6.23 20.11 6.34L20.11 6.34L20.11 6.34Q19.95 6.45 19.86 6.61L19.86 6.61L19.86 6.61Q19.77 6.77 19.77 6.99L19.77 6.99L19.77 6.99Q19.77 7.21 19.85 7.39L19.85 7.39L19.85 7.39Q19.94 7.57 20.16 7.73L20.16 7.73L20.16 7.73Q20.37 7.89 20.74 8.05L20.74 8.05L20.74 8.05Q21.11 8.22 21.68 8.42L21.68 8.42L21.68 8.42Q22.15 8.58 22.54 8.79L22.54 8.79L22.54 8.79Q22.93 9.00 23.22 9.27L23.22 9.27L23.22 9.27Q23.50 9.54 23.66 9.88L23.66 9.88L23.66 9.88Q23.82 10.23 23.82 10.67L23.82 10.67L23.82 10.67Q23.82 11.25 23.61 11.71L23.61 11.71L23.61 11.71Q23.41 12.17 23.02 12.48L23.02 12.48L23.02 12.48Q22.63 12.80 22.07 12.96L22.07 12.96L22.07 12.96Q21.50 13.13 20.77 13.13ZM28.77 12.00L28.77 12.00L28.77 12.00Q29.04 12.00 29.29 11.97L29.29 11.97L29.29 11.97Q29.54 11.93 29.76 11.87L29.76 11.87L29.76 12.78L29.76 12.78Q29.65 12.84 29.46 12.90L29.46 12.90L29.46 12.90Q29.27 12.96 29.02 13.01L29.02 13.01L29.02 13.01Q28.77 13.06 28.46 13.10L28.46 13.10L28.46 13.10Q28.14 13.13 27.77 13.13L27.77 13.13L27.77 13.13Q27.30 13.13 26.92 13.02L26.92 13.02L26.92 13.02Q26.54 12.91 26.27 12.64L26.27 12.64L26.27 12.64Q26.00 12.38 25.86 11.96L25.86 11.96L25.86 11.96Q25.72 11.54 25.72 10.92L25.72 10.92L25.72 6.45L24.66 6.45L24.66 5.73L24.66 5.73Q25.12 5.73 25.47 5.55L25.47 5.55L25.47 5.55Q25.83 5.37 26.04 5.14L26.04 5.14L26.04 5.14Q26.47 4.69 26.68 3.75L26.68 3.75L27.84 3.75L27.84 5.49L29.63 5.49L29.63 6.45L27.84 6.45L27.84 10.78L27.84 10.78Q27.84 11.42 28.06 11.71L28.06 11.71L28.06 11.71Q28.27 12.00 28.77 12.00ZM32.84 10.91L32.84 10.91L32.84 10.91Q32.84 11.51 33.03 11.81L33.03 11.81L33.03 11.81Q33.22 12.11 33.63 12.11L33.63 12.11L33.63 12.11Q33.93 12.11 34.18 11.99L34.18 11.99L34.18 11.99Q34.42 11.86 34.59 11.63L34.59 11.63L34.59 11.63Q34.77 11.40 34.86 11.06L34.86 11.06L34.86 11.06Q34.95 10.73 34.95 10.32L34.95 10.32L34.95 9.27L34.32 9.31L34.32 9.31Q33.91 9.33 33.62 9.44L33.62 9.44L33.62 9.44Q33.33 9.56 33.16 9.75L33.16 9.75L33.16 9.75Q32.99 9.95 32.92 10.24L32.92 10.24L32.92 10.24Q32.84 10.53 32.84 10.91ZM34.08 6.17L34.08 6.17L34.08 6.17Q33.82 6.17 33.64 6.28L33.64 6.28L33.64 6.28Q33.46 6.39 33.35 6.59L33.35 6.59L33.35 6.59Q33.24 6.79 33.19 7.07L33.19 7.07L33.19 7.07Q33.15 7.35 33.15 7.68L33.15 7.68L33.15 7.68Q32.20 7.68 31.73 7.46L31.73 7.46L31.73 7.46Q31.25 7.25 31.25 6.74L31.25 6.74L31.25 6.74Q31.25 6.36 31.48 6.08L31.48 6.08L31.48 6.08Q31.71 5.81 32.10 5.64L32.10 5.64L32.10 5.64Q32.50 5.47 33.02 5.39L33.02 5.39L33.02 5.39Q33.54 5.31 34.14 5.31L34.14 5.31L34.14 5.31Q34.88 5.31 35.43 5.44L35.43 5.44L35.43 5.44Q35.98 5.56 36.34 5.84L36.34 5.84L36.34 5.84Q36.71 6.13 36.89 6.58L36.89 6.58L36.89 6.58Q37.08 7.03 37.08 7.69L37.08 7.69L37.08 11.26L37.08 11.26Q37.08 11.55 37.12 11.74L37.12 11.74L37.12 11.74Q37.17 11.93 37.26 12.04L37.26 12.04L37.26 12.04Q37.36 12.15 37.52 12.20L37.52 12.20L37.52 12.20Q37.69 12.25 37.92 12.25L37.92 12.25L37.97 12.25L37.97 13.00L35.37 13.00L35.08 12.03L34.95 12.03L34.95 12.03Q34.72 12.31 34.51 12.52L34.51 12.52L34.51 12.52Q34.31 12.73 34.08 12.87L34.08 12.87L34.08 12.87Q33.84 13.00 33.55 13.07L33.55 13.07L33.55 13.07Q33.26 13.13 32.87 13.13L32.87 13.13L32.87 13.13Q32.40 13.13 32.00 13.00L32.00 13.00L32.00 13.00Q31.60 12.86 31.31 12.57L31.31 12.57L31.31 12.57Q31.01 12.29 30.84 11.86L30.84 11.86L30.84 11.86Q30.67 11.44 30.67 10.86L30.67 10.86L30.67 10.86Q30.67 9.71 31.45 9.17L31.45 9.17L31.45 9.17Q32.23 8.62 33.80 8.57L33.80 8.57L34.95 8.53L34.95 7.76L34.95 7.76Q34.95 7.41 34.92 7.12L34.92 7.12L34.92 7.12Q34.90 6.82 34.81 6.61L34.81 6.61L34.81 6.61Q34.72 6.40 34.55 6.28L34.55 6.28L34.55 6.28Q34.37 6.17 34.08 6.17ZM39.63 3.22L39.63 3.22L39.63 3.22Q39.63 2.95 39.72 2.76L39.72 2.76L39.72 2.76Q39.81 2.57 39.97 2.45L39.97 2.45L39.97 2.45Q40.13 2.33 40.35 2.27L40.35 2.27L40.35 2.27Q40.56 2.21 40.82 2.21L40.82 2.21L40.82 2.21Q41.06 2.21 41.28 2.27L41.28 2.27L41.28 2.27Q41.49 2.33 41.66 2.45L41.66 2.45L41.66 2.45Q41.82 2.57 41.92 2.76L41.92 2.76L41.92 2.76Q42.02 2.95 42.02 3.22L42.02 3.22L42.02 3.22Q42.02 3.48 41.92 3.67L41.92 3.67L41.92 3.67Q41.82 3.86 41.66 3.99L41.66 3.99L41.66 3.99Q41.49 4.11 41.28 4.17L41.28 4.17L41.28 4.17Q41.06 4.23 40.82 4.23L40.82 4.23L40.82 4.23Q40.56 4.23 40.35 4.17L40.35 4.17L40.35 4.17Q40.13 4.11 39.97 3.99L39.97 3.99L39.97 3.99Q39.81 3.86 39.72 3.67L39.72 3.67L39.72 3.67Q39.63 3.48 39.63 3.22ZM38.66 12.25L38.83 12.25L38.83 12.25Q38.99 12.25 39.16 12.22L39.16 12.22L39.16 12.22Q39.33 12.19 39.48 12.09L39.48 12.09L39.48 12.09Q39.63 12.00 39.73 11.82L39.73 11.82L39.73 11.82Q39.83 11.64 39.83 11.34L39.83 11.34L39.83 7.09L39.83 7.09Q39.83 6.81 39.73 6.64L39.73 6.64L39.73 6.64Q39.63 6.47 39.48 6.38L39.48 6.38L39.48 6.38Q39.33 6.29 39.15 6.26L39.15 6.26L39.15 6.26Q38.98 6.23 38.83 6.23L38.83 6.23L38.66 6.23L38.66 5.49L41.95 5.49L41.95 11.34L41.95 11.34Q41.95 11.64 42.05 11.82L42.05 11.82L42.05 11.82Q42.15 12.00 42.30 12.09L42.30 12.09L42.30 12.09Q42.44 12.19 42.62 12.22L42.62 12.22L42.62 12.22Q42.80 12.25 42.95 12.25L42.95 12.25L43.11 12.25L43.11 13.00L38.66 13.00L38.66 12.25ZM52.33 13.00L49.22 13.00L49.22 8.39L49.22 8.39Q49.22 7.94 49.16 7.58L49.16 7.58L49.16 7.58Q49.10 7.23 48.97 6.99L48.97 6.99L48.97 6.99Q48.84 6.75 48.62 6.63L48.62 6.63L48.62 6.63Q48.41 6.50 48.10 6.50L48.10 6.50L48.10 6.50Q47.75 6.50 47.52 6.68L47.52 6.68L47.52 6.68Q47.28 6.86 47.14 7.15L47.14 7.15L47.14 7.15Q47.00 7.45 46.94 7.84L46.94 7.84L46.94 7.84Q46.88 8.24 46.88 8.67L46.88 8.67L46.88 11.34L46.88 11.34Q46.88 11.63 46.95 11.81L46.95 11.81L46.95 11.81Q47.02 11.99 47.15 12.09L47.15 12.09L47.15 12.09Q47.28 12.19 47.47 12.22L47.47 12.22L47.47 12.22Q47.66 12.25 47.89 12.25L47.89 12.25L47.93 12.25L47.93 13.00L43.63 13.00L43.63 12.25L43.66 12.25L43.66 12.25Q43.90 12.25 44.10 12.22L44.10 12.22L44.10 12.22Q44.30 12.19 44.44 12.09L44.44 12.09L44.44 12.09Q44.59 11.98 44.67 11.79L44.67 11.79L44.67 11.79Q44.75 11.60 44.75 11.29L44.75 11.29L44.75 7.14L44.75 7.14Q44.75 6.85 44.68 6.67L44.68 6.67L44.68 6.67Q44.61 6.49 44.48 6.40L44.48 6.40L44.48 6.40Q44.34 6.30 44.16 6.27L44.16 6.27L44.16 6.27Q43.98 6.23 43.74 6.23L43.74 6.23L43.70 6.23L43.70 5.49L46.64 5.49L46.83 6.49L46.89 6.49L46.89 6.49Q47.11 6.09 47.34 5.86L47.34 5.86L47.34 5.86Q47.58 5.63 47.84 5.50L47.84 5.50L47.84 5.50Q48.11 5.38 48.41 5.35L48.41 5.35L48.41 5.35Q48.71 5.31 49.03 5.31L49.03 5.31L49.03 5.31Q49.57 5.31 50.00 5.47L50.00 5.47L50.00 5.47Q50.44 5.63 50.73 5.95L50.73 5.95L50.73 5.95Q51.03 6.28 51.19 6.79L51.19 6.79L51.19 6.79Q51.34 7.30 51.34 8.01L51.34 8.01L51.34 11.26L51.34 11.26Q51.34 11.59 51.40 11.78L51.40 11.78L51.40 11.78Q51.46 11.98 51.58 12.08L51.58 12.08L51.58 12.08Q51.69 12.18 51.87 12.22L51.87 12.22L51.87 12.22Q52.05 12.25 52.29 12.25L52.29 12.25L52.33 12.25L52.33 13.00ZM55.49 10.91L55.49 10.91L55.49 10.91Q55.49 11.51 55.69 11.81L55.69 11.81L55.69 11.81Q55.88 12.11 56.29 12.11L56.29 12.11L56.29 12.11Q56.59 12.11 56.83 11.99L56.83 11.99L56.83 11.99Q57.07 11.86 57.25 11.63L57.25 11.63L57.25 11.63Q57.42 11.40 57.51 11.06L57.51 11.06L57.51 11.06Q57.61 10.73 57.61 10.32L57.61 10.32L57.61 9.27L56.98 9.31L56.98 9.31Q56.56 9.33 56.27 9.44L56.27 9.44L56.27 9.44Q55.99 9.56 55.82 9.75L55.82 9.75L55.82 9.75Q55.64 9.95 55.57 10.24L55.57 10.24L55.57 10.24Q55.49 10.53 55.49 10.91ZM56.74 6.17L56.74 6.17L56.74 6.17Q56.47 6.17 56.29 6.28L56.29 6.28L56.29 6.28Q56.11 6.39 56 6.59L56 6.59L56 6.59Q55.89 6.79 55.85 7.07L55.85 7.07L55.85 7.07Q55.80 7.35 55.80 7.68L55.80 7.68L55.80 7.68Q54.86 7.68 54.38 7.46L54.38 7.46L54.38 7.46Q53.91 7.25 53.91 6.74L53.91 6.74L53.91 6.74Q53.91 6.36 54.14 6.08L54.14 6.08L54.14 6.08Q54.37 5.81 54.76 5.64L54.76 5.64L54.76 5.64Q55.15 5.47 55.68 5.39L55.68 5.39L55.68 5.39Q56.20 5.31 56.79 5.31L56.79 5.31L56.79 5.31Q57.53 5.31 58.08 5.44L58.08 5.44L58.08 5.44Q58.63 5.56 59.00 5.84L59.00 5.84L59.00 5.84Q59.36 6.13 59.55 6.58L59.55 6.58L59.55 6.58Q59.73 7.03 59.73 7.69L59.73 7.69L59.73 11.26L59.73 11.26Q59.73 11.55 59.78 11.74L59.78 11.74L59.78 11.74Q59.82 11.93 59.92 12.04L59.92 12.04L59.92 12.04Q60.01 12.15 60.18 12.20L60.18 12.20L60.18 12.20Q60.34 12.25 60.57 12.25L60.57 12.25L60.63 12.25L60.63 13.00L58.02 13.00L57.73 12.03L57.61 12.03L57.61 12.03Q57.37 12.31 57.17 12.52L57.17 12.52L57.17 12.52Q56.96 12.73 56.73 12.87L56.73 12.87L56.73 12.87Q56.50 13.00 56.21 13.07L56.21 13.07L56.21 13.07Q55.92 13.13 55.52 13.13L55.52 13.13L55.52 13.13Q55.06 13.13 54.66 13.00L54.66 13.00L54.66 13.00Q54.26 12.86 53.96 12.57L53.96 12.57L53.96 12.57Q53.66 12.29 53.49 11.86L53.49 11.86L53.49 11.86Q53.32 11.44 53.32 10.86L53.32 10.86L53.32 10.86Q53.32 9.71 54.10 9.17L54.10 9.17L54.10 9.17Q54.89 8.62 56.46 8.57L56.46 8.57L57.61 8.53L57.61 7.76L57.61 7.76Q57.61 7.41 57.58 7.12L57.58 7.12L57.58 7.12Q57.55 6.82 57.46 6.61L57.46 6.61L57.46 6.61Q57.37 6.40 57.20 6.28L57.20 6.28L57.20 6.28Q57.03 6.17 56.74 6.17ZM69.51 9.21L69.51 9.21L69.51 9.21Q69.51 10.23 69.32 10.97L69.32 10.97L69.32 10.97Q69.13 11.71 68.77 12.19L68.77 12.19L68.77 12.19Q68.41 12.67 67.87 12.90L67.87 12.90L67.87 12.90Q67.33 13.13 66.64 13.13L66.64 13.13L66.64 13.13Q66.23 13.13 65.91 13.04L65.91 13.04L65.91 13.04Q65.58 12.95 65.31 12.79L65.31 12.79L65.31 12.79Q65.05 12.63 64.85 12.40L64.85 12.40L64.85 12.40Q64.65 12.17 64.50 11.90L64.50 11.90L64.37 11.90L63.98 13.00L61.32 13.00L61.32 12.25L61.41 12.25L61.41 12.25Q61.61 12.25 61.80 12.22L61.80 12.22L61.80 12.22Q62.00 12.18 62.15 12.08L62.15 12.08L62.15 12.08Q62.30 11.98 62.39 11.79L62.39 11.79L62.39 11.79Q62.48 11.59 62.48 11.27L62.48 11.27L62.48 4.03L62.48 4.03Q62.48 3.73 62.39 3.55L62.39 3.55L62.39 3.55Q62.30 3.37 62.15 3.27L62.15 3.27L62.15 3.27Q62.00 3.17 61.80 3.13L61.80 3.13L61.80 3.13Q61.60 3.10 61.37 3.10L61.37 3.10L61.32 3.10L61.32 2.36L64.61 2.36L64.61 4.75L64.61 4.75Q64.61 4.97 64.59 5.26L64.59 5.26L64.59 5.26Q64.57 5.56 64.55 5.82L64.55 5.82L64.55 5.82Q64.52 6.13 64.50 6.45L64.50 6.45L64.59 6.45L64.59 6.45Q64.89 5.93 65.40 5.63L65.40 5.63L65.40 5.63Q65.90 5.33 66.69 5.33L66.69 5.33L66.69 5.33Q67.38 5.33 67.90 5.55L67.90 5.55L67.90 5.55Q68.42 5.78 68.78 6.26L68.78 6.26L68.78 6.26Q69.14 6.73 69.32 7.47L69.32 7.47L69.32 7.47Q69.51 8.20 69.51 9.21ZM66.04 6.36L66.04 6.36L66.04 6.36Q65.62 6.36 65.34 6.53L65.34 6.53L65.34 6.53Q65.07 6.71 64.91 7.06L64.91 7.06L64.91 7.06Q64.74 7.42 64.67 7.95L64.67 7.95L64.67 7.95Q64.61 8.49 64.61 9.21L64.61 9.21L64.61 9.21Q64.61 9.91 64.67 10.44L64.67 10.44L64.67 10.44Q64.74 10.98 64.91 11.34L64.91 11.34L64.91 11.34Q65.07 11.71 65.35 11.90L65.35 11.90L65.35 11.90Q65.63 12.09 66.05 12.09L66.05 12.09L66.05 12.09Q66.74 12.09 67.05 11.34L67.05 11.34L67.05 11.34Q67.35 10.60 67.35 9.20L67.35 9.20L67.35 9.20Q67.35 7.77 67.05 7.06L67.05 7.06L67.05 7.06Q66.74 6.36 66.04 6.36ZM70.40 12.25L70.57 12.25L70.57 12.25Q70.72 12.25 70.90 12.22L70.90 12.22L70.90 12.22Q71.07 12.19 71.22 12.09L71.22 12.09L71.22 12.09Q71.37 12.00 71.47 11.82L71.47 11.82L71.47 11.82Q71.57 11.64 71.57 11.34L71.57 11.34L71.57 3.95L71.57 3.95Q71.57 3.67 71.47 3.50L71.47 3.50L71.47 3.50Q71.37 3.34 71.22 3.24L71.22 3.24L71.22 3.24Q71.07 3.15 70.89 3.12L70.89 3.12L70.89 3.12Q70.72 3.10 70.57 3.10L70.57 3.10L70.40 3.10L70.40 2.36L73.69 2.36L73.69 11.34L73.69 11.34Q73.69 11.64 73.79 11.82L73.79 11.82L73.79 11.82Q73.89 12.00 74.04 12.09L74.04 12.09L74.04 12.09Q74.18 12.19 74.36 12.22L74.36 12.22L74.36 12.22Q74.54 12.25 74.69 12.25L74.69 12.25L74.85 12.25L74.85 13.00L70.40 13.00L70.40 12.25ZM79.25 6.22L79.25 6.22L79.25 6.22Q78.66 6.22 78.32 6.80L78.32 6.80L78.32 6.80Q77.97 7.38 77.94 8.50L77.94 8.50L80.36 8.50L80.36 8.50Q80.36 7.97 80.29 7.55L80.29 7.55L80.29 7.55Q80.23 7.12 80.10 6.83L80.10 6.83L80.10 6.83Q79.97 6.54 79.76 6.38L79.76 6.38L79.76 6.38Q79.55 6.22 79.25 6.22ZM79.38 13.13L79.38 13.13L79.38 13.13Q78.49 13.13 77.81 12.87L77.81 12.87L77.81 12.87Q77.13 12.61 76.67 12.12L76.67 12.12L76.67 12.12Q76.21 11.63 75.98 10.91L75.98 10.91L75.98 10.91Q75.75 10.20 75.75 9.28L75.75 9.28L75.75 9.28Q75.75 8.30 75.98 7.55L75.98 7.55L75.98 7.55Q76.21 6.81 76.66 6.31L76.66 6.31L76.66 6.31Q77.10 5.81 77.75 5.56L77.75 5.56L77.75 5.56Q78.39 5.31 79.22 5.31L79.22 5.31L79.22 5.31Q79.98 5.31 80.59 5.53L80.59 5.53L80.59 5.53Q81.20 5.74 81.62 6.17L81.62 6.17L81.62 6.17Q82.04 6.59 82.27 7.22L82.27 7.22L82.27 7.22Q82.50 7.85 82.50 8.68L82.50 8.68L82.50 9.40L77.91 9.40L77.91 9.40Q77.93 10.10 78.06 10.61L78.06 10.61L78.06 10.61Q78.20 11.12 78.43 11.44L78.43 11.44L78.43 11.44Q78.67 11.77 79.01 11.93L79.01 11.93L79.01 11.93Q79.34 12.09 79.78 12.09L79.78 12.09L79.78 12.09Q80.14 12.09 80.45 12.00L80.45 12.00L80.45 12.00Q80.76 11.92 81.01 11.76L81.01 11.76L81.01 11.76Q81.26 11.61 81.45 11.40L81.45 11.40L81.45 11.40Q81.63 11.19 81.76 10.95L81.76 10.95L81.76 10.95Q82.13 11.16 82.13 11.63L82.13 11.63L82.13 11.63Q82.13 11.94 81.97 12.21L81.97 12.21L81.97 12.21Q81.81 12.48 81.46 12.68L81.46 12.68L81.46 12.68Q81.12 12.89 80.61 13.01L80.61 13.01L80.61 13.01Q80.09 13.13 79.38 13.13ZM93.17 9.71L89.77 9.71L89.37 10.91L89.37 10.91Q89.31 11.08 89.25 11.31L89.25 11.31L89.25 11.31Q89.20 11.54 89.20 11.71L89.20 11.71L89.20 11.71Q89.20 11.85 89.25 11.95L89.25 11.95L89.25 11.95Q89.30 12.05 89.39 12.12L89.39 12.12L89.39 12.12Q89.48 12.18 89.60 12.22L89.60 12.22L89.60 12.22Q89.71 12.25 89.83 12.25L89.83 12.25L90.42 12.25L90.42 13.00L86.78 13.00L86.78 12.25L86.95 12.25L86.95 12.25Q87.13 12.25 87.28 12.21L87.28 12.21L87.28 12.21Q87.44 12.17 87.57 12.06L87.57 12.06L87.57 12.06Q87.71 11.94 87.82 11.74L87.82 11.74L87.82 11.74Q87.94 11.55 88.07 11.23L88.07 11.23L91.10 3.00L93.02 3.00L95.95 11.25L95.95 11.25Q96.05 11.54 96.16 11.73L96.16 11.73L96.16 11.73Q96.28 11.93 96.41 12.04L96.41 12.04L96.41 12.04Q96.54 12.15 96.69 12.20L96.69 12.20L96.69 12.20Q96.84 12.25 97.01 12.25L97.01 12.25L97.26 12.25L97.26 13.00L92.64 13.00L92.64 12.25L93.19 12.25L93.19 12.25Q93.29 12.25 93.40 12.22L93.40 12.22L93.40 12.22Q93.51 12.19 93.59 12.12L93.59 12.12L93.59 12.12Q93.68 12.06 93.73 11.96L93.73 11.96L93.73 11.96Q93.79 11.85 93.79 11.71L93.79 11.71L93.79 11.71Q93.79 11.54 93.75 11.38L93.75 11.38L93.75 11.38Q93.71 11.22 93.67 11.11L93.67 11.11L93.17 9.71ZM92.89 8.85L92.16 6.56L92.16 6.56Q92.08 6.32 92.00 6.05L92.00 6.05L92.00 6.05Q91.92 5.79 91.84 5.52L91.84 5.52L91.84 5.52Q91.77 5.24 91.69 4.97L91.69 4.97L91.69 4.97Q91.62 4.70 91.57 4.46L91.57 4.46L91.57 4.46Q91.51 4.67 91.42 4.92L91.42 4.92L91.42 4.92Q91.34 5.17 91.25 5.44L91.25 5.44L91.25 5.44Q91.16 5.71 91.06 5.97L91.06 5.97L91.06 5.97Q90.97 6.24 90.89 6.49L90.89 6.49L90.06 8.85L92.89 8.85ZM104.75 5.76L104.75 5.76L104.75 5.76Q104.75 5.91 104.71 6.06L104.71 6.06L104.71 6.06Q104.66 6.21 104.55 6.32L104.55 6.32L104.55 6.32Q104.43 6.43 104.24 6.49L104.24 6.49L104.24 6.49Q104.04 6.56 103.76 6.56L103.76 6.56L103.76 6.56Q103.76 6.41 103.71 6.30L103.71 6.30L103.71 6.30Q103.67 6.19 103.59 6.12L103.59 6.12L103.59 6.12Q103.52 6.04 103.42 6.01L103.42 6.01L103.42 6.01Q103.33 5.97 103.22 5.97L103.22 5.97L103.22 5.97Q103.11 5.97 102.97 6.02L102.97 6.02L102.97 6.02Q102.84 6.06 102.76 6.12L102.76 6.12L102.76 6.12Q102.91 6.28 103.03 6.48L103.03 6.48L103.03 6.48Q103.15 6.68 103.25 6.91L103.25 6.91L103.25 6.91Q103.34 7.14 103.39 7.39L103.39 7.39L103.39 7.39Q103.45 7.64 103.45 7.90L103.45 7.90L103.45 7.90Q103.45 8.43 103.28 8.88L103.28 8.88L103.28 8.88Q103.11 9.32 102.76 9.65L102.76 9.65L102.76 9.65Q102.42 9.98 101.88 10.17L101.88 10.17L101.88 10.17Q101.35 10.35 100.62 10.35L100.62 10.35L100.62 10.35Q100.54 10.35 100.43 10.35L100.43 10.35L100.43 10.35Q100.31 10.34 100.19 10.34L100.19 10.34L100.19 10.34Q100.08 10.34 99.97 10.33L99.97 10.33L99.97 10.33Q99.87 10.32 99.81 10.31L99.81 10.31L99.81 10.31Q99.72 10.36 99.63 10.43L99.63 10.43L99.63 10.43Q99.54 10.50 99.47 10.59L99.47 10.59L99.47 10.59Q99.39 10.68 99.35 10.79L99.35 10.79L99.35 10.79Q99.31 10.90 99.31 11.02L99.31 11.02L99.31 11.02Q99.31 11.25 99.49 11.36L99.49 11.36L99.49 11.36Q99.67 11.47 99.96 11.47L99.96 11.47L101.66 11.47L101.66 11.47Q102.35 11.47 102.86 11.62L102.86 11.62L102.86 11.62Q103.37 11.76 103.70 12.04L103.70 12.04L103.70 12.04Q104.03 12.31 104.19 12.71L104.19 12.71L104.19 12.71Q104.34 13.11 104.34 13.61L104.34 13.61L104.34 13.61Q104.34 14.26 104.10 14.77L104.10 14.77L104.10 14.77Q103.85 15.28 103.35 15.63L103.35 15.63L103.35 15.63Q102.85 15.98 102.08 16.17L102.08 16.17L102.08 16.17Q101.32 16.36 100.28 16.36L100.28 16.36L100.28 16.36Q98.63 16.36 97.82 15.86L97.82 15.86L97.82 15.86Q97.01 15.37 97.01 14.41L97.01 14.41L97.01 14.41Q97.01 13.66 97.49 13.26L97.49 13.26L97.49 13.26Q97.98 12.86 98.90 12.78L98.90 12.78L98.90 12.78Q98.71 12.71 98.53 12.60L98.53 12.60L98.53 12.60Q98.34 12.49 98.20 12.34L98.20 12.34L98.20 12.34Q98.05 12.18 97.97 11.98L97.97 11.98L97.97 11.98Q97.88 11.79 97.88 11.54L97.88 11.54L97.88 11.54Q97.88 11.31 97.97 11.11L97.97 11.11L97.97 11.11Q98.06 10.91 98.23 10.73L98.23 10.73L98.23 10.73Q98.39 10.55 98.62 10.39L98.62 10.39L98.62 10.39Q98.85 10.23 99.12 10.07L99.12 10.07L99.12 10.07Q98.81 9.96 98.55 9.77L98.55 9.77L98.55 9.77Q98.29 9.57 98.10 9.30L98.10 9.30L98.10 9.30Q97.91 9.02 97.80 8.67L97.80 8.67L97.80 8.67Q97.69 8.33 97.69 7.90L97.69 7.90L97.69 7.90Q97.69 6.67 98.41 5.99L98.41 5.99L98.41 5.99Q99.12 5.31 100.62 5.31L100.62 5.31L100.62 5.31Q101.12 5.31 101.54 5.44L101.54 5.44L101.54 5.44Q101.97 5.56 102.29 5.74L102.29 5.74L102.29 5.74Q102.40 5.62 102.54 5.48L102.54 5.48L102.54 5.48Q102.68 5.34 102.86 5.22L102.86 5.22L102.86 5.22Q103.04 5.11 103.26 5.03L103.26 5.03L103.26 5.03Q103.48 4.96 103.74 4.96L103.74 4.96L103.74 4.96Q104.00 4.96 104.18 5.02L104.18 5.02L104.18 5.02Q104.37 5.09 104.50 5.20L104.50 5.20L104.50 5.20Q104.62 5.30 104.69 5.45L104.69 5.45L104.69 5.45Q104.75 5.59 104.75 5.76ZM98.66 14.38L98.66 14.38L98.66 14.38Q98.66 14.96 99.08 15.24L99.08 15.24L99.08 15.24Q99.50 15.52 100.31 15.52L100.31 15.52L100.31 15.52Q101.54 15.52 102.10 15.16L102.10 15.16L102.10 15.16Q102.66 14.81 102.66 14.12L102.66 14.12L102.66 14.12Q102.66 13.67 102.38 13.49L102.38 13.49L102.38 13.49Q102.10 13.32 101.53 13.32L101.53 13.32L99.91 13.32L99.91 13.32Q99.70 13.32 99.48 13.35L99.48 13.35L99.48 13.35Q99.26 13.39 99.08 13.51L99.08 13.51L99.08 13.51Q98.90 13.62 98.78 13.83L98.78 13.83L98.78 13.83Q98.66 14.04 98.66 14.38ZM99.60 7.90L99.60 7.90L99.60 7.90Q99.60 8.27 99.65 8.57L99.65 8.57L99.65 8.57Q99.70 8.87 99.82 9.08L99.82 9.08L99.82 9.08Q99.93 9.29 100.12 9.41L100.12 9.41L100.12 9.41Q100.30 9.52 100.58 9.52L100.58 9.52L100.58 9.52Q100.86 9.52 101.04 9.41L101.04 9.41L101.04 9.41Q101.23 9.30 101.34 9.08L101.34 9.08L101.34 9.08Q101.45 8.87 101.49 8.56L101.49 8.56L101.49 8.56Q101.53 8.26 101.53 7.88L101.53 7.88L101.53 7.88Q101.53 7.49 101.49 7.17L101.49 7.17L101.49 7.17Q101.44 6.86 101.33 6.63L101.33 6.63L101.33 6.63Q101.21 6.41 101.03 6.28L101.03 6.28L101.03 6.28Q100.84 6.15 100.56 6.15L100.56 6.15L100.56 6.15Q100.29 6.15 100.11 6.28L100.11 6.28L100.11 6.28Q99.92 6.41 99.81 6.64L99.81 6.64L99.81 6.64Q99.70 6.88 99.65 7.20L99.65 7.20L99.65 7.20Q99.60 7.52 99.60 7.90ZM109.78 12.25L109.78 13.00L105.10 13.00L105.10 12.25L105.14 12.25L105.14 12.25Q105.38 12.25 105.58 12.22L105.58 12.22L105.58 12.22Q105.78 12.18 105.92 12.08L105.92 12.08L105.92 12.08Q106.07 11.97 106.15 11.77L106.15 11.77L106.15 11.77Q106.22 11.57 106.22 11.25L106.22 11.25L106.22 7.18L106.22 7.18Q106.22 6.88 106.15 6.69L106.15 6.69L106.15 6.69Q106.08 6.50 105.95 6.40L105.95 6.40L105.95 6.40Q105.81 6.30 105.63 6.27L105.63 6.27L105.63 6.27Q105.44 6.23 105.21 6.23L105.21 6.23L105.17 6.23L105.17 5.49L108.00 5.49L108.28 6.58L108.35 6.58L108.35 6.58Q108.49 6.27 108.65 6.03L108.65 6.03L108.65 6.03Q108.81 5.80 109.04 5.64L109.04 5.64L109.04 5.64Q109.27 5.48 109.58 5.40L109.58 5.40L109.58 5.40Q109.89 5.33 110.33 5.33L110.33 5.33L110.33 5.33Q111.15 5.33 111.54 5.62L111.54 5.62L111.54 5.62Q111.93 5.91 111.93 6.46L111.93 6.46L111.93 6.46Q111.93 7.10 111.47 7.46L111.47 7.46L111.47 7.46Q111.00 7.81 110.15 7.81L110.15 7.81L110.15 7.81Q110.15 7.53 110.12 7.31L110.12 7.31L110.12 7.31Q110.09 7.09 110.01 6.95L110.01 6.95L110.01 6.95Q109.94 6.80 109.80 6.73L109.80 6.73L109.80 6.73Q109.67 6.65 109.47 6.65L109.47 6.65L109.47 6.65Q109.22 6.65 109.05 6.77L109.05 6.77L109.05 6.77Q108.87 6.90 108.75 7.09L108.75 7.09L108.75 7.09Q108.62 7.29 108.54 7.53L108.54 7.53L108.54 7.53Q108.47 7.78 108.42 8.03L108.42 8.03L108.42 8.03Q108.38 8.28 108.36 8.50L108.36 8.50L108.36 8.50Q108.35 8.73 108.35 8.89L108.35 8.89L108.35 11.31L108.35 11.31Q108.35 11.62 108.42 11.81L108.42 11.81L108.42 11.81Q108.50 12.00 108.63 12.09L108.63 12.09L108.63 12.09Q108.76 12.19 108.94 12.22L108.94 12.22L108.94 12.22Q109.12 12.25 109.33 12.25L109.33 12.25L109.78 12.25ZM113.35 3.22L113.35 3.22L113.35 3.22Q113.35 2.95 113.44 2.76L113.44 2.76L113.44 2.76Q113.53 2.57 113.69 2.45L113.69 2.45L113.69 2.45Q113.85 2.33 114.07 2.27L114.07 2.27L114.07 2.27Q114.28 2.21 114.54 2.21L114.54 2.21L114.54 2.21Q114.78 2.21 114.99 2.27L114.99 2.27L114.99 2.27Q115.21 2.33 115.38 2.45L115.38 2.45L115.38 2.45Q115.54 2.57 115.64 2.76L115.64 2.76L115.64 2.76Q115.74 2.95 115.74 3.22L115.74 3.22L115.74 3.22Q115.74 3.48 115.64 3.67L115.64 3.67L115.64 3.67Q115.54 3.86 115.38 3.99L115.38 3.99L115.38 3.99Q115.21 4.11 114.99 4.17L114.99 4.17L114.99 4.17Q114.78 4.23 114.54 4.23L114.54 4.23L114.54 4.23Q114.28 4.23 114.07 4.17L114.07 4.17L114.07 4.17Q113.85 4.11 113.69 3.99L113.69 3.99L113.69 3.99Q113.53 3.86 113.44 3.67L113.44 3.67L113.44 3.67Q113.35 3.48 113.35 3.22ZM112.38 12.25L112.55 12.25L112.55 12.25Q112.70 12.25 112.88 12.22L112.88 12.22L112.88 12.22Q113.05 12.19 113.20 12.09L113.20 12.09L113.20 12.09Q113.35 12.00 113.45 11.82L113.45 11.82L113.45 11.82Q113.54 11.64 113.54 11.34L113.54 11.34L113.54 7.09L113.54 7.09Q113.54 6.81 113.45 6.64L113.45 6.64L113.45 6.64Q113.35 6.47 113.20 6.38L113.20 6.38L113.20 6.38Q113.05 6.29 112.87 6.26L112.87 6.26L112.87 6.26Q112.70 6.23 112.55 6.23L112.55 6.23L112.38 6.23L112.38 5.49L115.67 5.49L115.67 11.34L115.67 11.34Q115.67 11.64 115.77 11.82L115.77 11.82L115.77 11.82Q115.87 12.00 116.02 12.09L116.02 12.09L116.02 12.09Q116.16 12.19 116.34 12.22L116.34 12.22L116.34 12.22Q116.52 12.25 116.67 12.25L116.67 12.25L116.83 12.25L116.83 13.00L112.38 13.00L112.38 12.25ZM121.20 13.13L121.20 13.13L121.20 13.13Q120.43 13.13 119.79 12.93L119.79 12.93L119.79 12.93Q119.15 12.74 118.69 12.28L118.69 12.28L118.69 12.28Q118.23 11.82 117.98 11.08L117.98 11.08L117.98 11.08Q117.73 10.34 117.73 9.27L117.73 9.27L117.73 9.27Q117.73 8.13 117.99 7.38L117.99 7.38L117.99 7.38Q118.25 6.62 118.72 6.16L118.72 6.16L118.72 6.16Q119.18 5.70 119.81 5.51L119.81 5.51L119.81 5.51Q120.44 5.31 121.16 5.31L121.16 5.31L121.16 5.31Q121.84 5.31 122.36 5.42L122.36 5.42L122.36 5.42Q122.88 5.54 123.22 5.74L123.22 5.74L123.22 5.74Q123.57 5.93 123.75 6.20L123.75 6.20L123.75 6.20Q123.94 6.47 123.94 6.78L123.94 6.78L123.94 6.78Q123.94 7.01 123.86 7.22L123.86 7.22L123.86 7.22Q123.78 7.44 123.58 7.60L123.58 7.60L123.58 7.60Q123.38 7.77 123.02 7.87L123.02 7.87L123.02 7.87Q122.67 7.97 122.12 7.97L122.12 7.97L122.12 7.97Q122.12 7.61 122.08 7.28L122.08 7.28L122.08 7.28Q122.04 6.95 121.93 6.71L121.93 6.71L121.93 6.71Q121.83 6.46 121.66 6.31L121.66 6.31L121.66 6.31Q121.48 6.17 121.21 6.17L121.21 6.17L121.21 6.17Q120.91 6.17 120.66 6.31L120.66 6.31L120.66 6.31Q120.42 6.46 120.25 6.82L120.25 6.82L120.25 6.82Q120.07 7.17 119.98 7.77L119.98 7.77L119.98 7.77Q119.89 8.36 119.89 9.26L119.89 9.26L119.89 9.26Q119.89 10.68 120.28 11.38L120.28 11.38L120.28 11.38Q120.67 12.09 121.55 12.09L121.55 12.09L121.55 12.09Q121.91 12.09 122.23 12.00L122.23 12.00L122.23 12.00Q122.55 11.92 122.81 11.76L122.81 11.76L122.81 11.76Q123.07 11.61 123.26 11.40L123.26 11.40L123.26 11.40Q123.46 11.19 123.58 10.95L123.58 10.95L123.58 10.95Q123.75 11.05 123.83 11.23L123.83 11.23L123.83 11.23Q123.92 11.40 123.92 11.59L123.92 11.59L123.92 11.59Q123.92 11.86 123.76 12.13L123.76 12.13L123.76 12.13Q123.60 12.41 123.27 12.63L123.27 12.63L123.27 12.63Q122.94 12.85 122.42 12.99L122.42 12.99L122.42 12.99Q121.91 13.13 121.20 13.13ZM133.44 13.00L130.65 13.00L130.34 12.00L130.27 12.00L130.27 12.00Q130.06 12.37 129.81 12.59L129.81 12.59L129.81 12.59Q129.57 12.81 129.29 12.93L129.29 12.93L129.29 12.93Q129.01 13.05 128.70 13.09L128.70 13.09L128.70 13.09Q128.39 13.13 128.06 13.13L128.06 13.13L128.06 13.13Q126.96 13.13 126.38 12.46L126.38 12.46L126.38 12.46Q125.79 11.78 125.79 10.36L125.79 10.36L125.79 7.23L125.79 7.23Q125.79 6.92 125.74 6.73L125.74 6.73L125.74 6.73Q125.69 6.54 125.57 6.43L125.57 6.43L125.57 6.43Q125.45 6.32 125.27 6.28L125.27 6.28L125.27 6.28Q125.09 6.23 124.84 6.23L124.84 6.23L124.81 6.23L124.81 5.49L127.92 5.49L127.92 9.97L127.92 9.97Q127.92 10.42 127.97 10.79L127.97 10.79L127.97 10.79Q128.02 11.15 128.15 11.41L128.15 11.41L128.15 11.41Q128.27 11.66 128.47 11.80L128.47 11.80L128.47 11.80Q128.68 11.94 128.99 11.94L128.99 11.94L128.99 11.94Q129.32 11.94 129.56 11.80L129.56 11.80L129.56 11.80Q129.81 11.65 129.96 11.37L129.96 11.37L129.96 11.37Q130.12 11.09 130.19 10.70L130.19 10.70L130.19 10.70Q130.26 10.31 130.26 9.82L130.26 9.82L130.26 7.13L130.26 7.13Q130.26 6.82 130.18 6.64L130.18 6.64L130.18 6.64Q130.09 6.47 129.96 6.37L129.96 6.37L129.96 6.37Q129.82 6.28 129.64 6.26L129.64 6.26L129.64 6.26Q129.45 6.23 129.25 6.23L129.25 6.23L129.21 6.23L129.21 5.49L132.38 5.49L132.38 11.37L132.38 11.37Q132.38 11.68 132.46 11.85L132.46 11.85L132.46 11.85Q132.53 12.02 132.65 12.11L132.65 12.11L132.65 12.11Q132.77 12.20 132.95 12.23L132.95 12.23L132.95 12.23Q133.12 12.25 133.32 12.25L133.32 12.25L133.44 12.25L133.44 13.00ZM134.03 12.25L134.19 12.25L134.19 12.25Q134.35 12.25 134.52 12.22L134.52 12.22L134.52 12.22Q134.70 12.19 134.84 12.09L134.84 12.09L134.84 12.09Q134.99 12.00 135.09 11.82L135.09 11.82L135.09 11.82Q135.19 11.64 135.19 11.34L135.19 11.34L135.19 3.95L135.19 3.95Q135.19 3.67 135.09 3.50L135.09 3.50L135.09 3.50Q134.99 3.34 134.84 3.24L134.84 3.24L134.84 3.24Q134.69 3.15 134.51 3.12L134.51 3.12L134.51 3.12Q134.34 3.10 134.19 3.10L134.19 3.10L134.03 3.10L134.03 2.36L137.31 2.36L137.31 11.34L137.31 11.34Q137.31 11.64 137.41 11.82L137.41 11.82L137.41 11.82Q137.51 12.00 137.66 12.09L137.66 12.09L137.66 12.09Q137.81 12.19 137.98 12.22L137.98 12.22L137.98 12.22Q138.16 12.25 138.31 12.25L138.31 12.25L138.48 12.25L138.48 13.00L134.03 13.00L134.03 12.25ZM143.11 12.00L143.11 12.00L143.11 12.00Q143.38 12.00 143.63 11.97L143.63 11.97L143.63 11.97Q143.88 11.93 144.10 11.87L144.10 11.87L144.10 12.78L144.10 12.78Q143.99 12.84 143.80 12.90L143.80 12.90L143.80 12.90Q143.62 12.96 143.37 13.01L143.37 13.01L143.37 13.01Q143.12 13.06 142.80 13.10L142.80 13.10L142.80 13.10Q142.49 13.13 142.12 13.13L142.12 13.13L142.12 13.13Q141.65 13.13 141.26 13.02L141.26 13.02L141.26 13.02Q140.88 12.91 140.62 12.64L140.62 12.64L140.62 12.64Q140.35 12.38 140.21 11.96L140.21 11.96L140.21 11.96Q140.06 11.54 140.06 10.92L140.06 10.92L140.06 6.45L139.01 6.45L139.01 5.73L139.01 5.73Q139.46 5.73 139.82 5.55L139.82 5.55L139.82 5.55Q140.17 5.37 140.38 5.14L140.38 5.14L140.38 5.14Q140.81 4.69 141.03 3.75L141.03 3.75L142.19 3.75L142.19 5.49L143.98 5.49L143.98 6.45L142.19 6.45L142.19 10.78L142.19 10.78Q142.19 11.42 142.40 11.71L142.40 11.71L142.40 11.71Q142.62 12.00 143.11 12.00ZM153.37 13.00L150.58 13.00L150.27 12.00L150.21 12.00L150.21 12.00Q149.99 12.37 149.75 12.59L149.75 12.59L149.75 12.59Q149.50 12.81 149.22 12.93L149.22 12.93L149.22 12.93Q148.94 13.05 148.63 13.09L148.63 13.09L148.63 13.09Q148.32 13.13 147.99 13.13L147.99 13.13L147.99 13.13Q146.90 13.13 146.31 12.46L146.31 12.46L146.31 12.46Q145.73 11.78 145.73 10.36L145.73 10.36L145.73 7.23L145.73 7.23Q145.73 6.92 145.67 6.73L145.67 6.73L145.67 6.73Q145.62 6.54 145.50 6.43L145.50 6.43L145.50 6.43Q145.39 6.32 145.21 6.28L145.21 6.28L145.21 6.28Q145.02 6.23 144.77 6.23L144.77 6.23L144.74 6.23L144.74 5.49L147.85 5.49L147.85 9.97L147.85 9.97Q147.85 10.42 147.91 10.79L147.91 10.79L147.91 10.79Q147.96 11.15 148.08 11.41L148.08 11.41L148.08 11.41Q148.20 11.66 148.41 11.80L148.41 11.80L148.41 11.80Q148.61 11.94 148.92 11.94L148.92 11.94L148.92 11.94Q149.26 11.94 149.50 11.80L149.50 11.80L149.50 11.80Q149.74 11.65 149.90 11.37L149.90 11.37L149.90 11.37Q150.05 11.09 150.12 10.70L150.12 10.70L150.12 10.70Q150.19 10.31 150.19 9.82L150.19 9.82L150.19 7.13L150.19 7.13Q150.19 6.82 150.11 6.64L150.11 6.64L150.11 6.64Q150.03 6.47 149.89 6.37L149.89 6.37L149.89 6.37Q149.75 6.28 149.57 6.26L149.57 6.26L149.57 6.26Q149.39 6.23 149.18 6.23L149.18 6.23L149.14 6.23L149.14 5.49L152.32 5.49L152.32 11.37L152.32 11.37Q152.32 11.68 152.39 11.85L152.39 11.85L152.39 11.85Q152.46 12.02 152.58 12.11L152.58 12.11L152.58 12.11Q152.71 12.20 152.88 12.23L152.88 12.23L152.88 12.23Q153.05 12.25 153.25 12.25L153.25 12.25L153.37 12.25L153.37 13.00ZM158.68 12.25L158.68 13.00L154 13.00L154 12.25L154.04 12.25L154.04 12.25Q154.28 12.25 154.48 12.22L154.48 12.22L154.48 12.22Q154.68 12.18 154.82 12.08L154.82 12.08L154.82 12.08Q154.96 11.97 155.04 11.77L155.04 11.77L155.04 11.77Q155.12 11.57 155.12 11.25L155.12 11.25L155.12 7.18L155.12 7.18Q155.12 6.88 155.05 6.69L155.05 6.69L155.05 6.69Q154.98 6.50 154.84 6.40L154.84 6.40L154.84 6.40Q154.71 6.30 154.53 6.27L154.53 6.27L154.53 6.27Q154.34 6.23 154.11 6.23L154.11 6.23L154.07 6.23L154.07 5.49L156.90 5.49L157.18 6.58L157.25 6.58L157.25 6.58Q157.38 6.27 157.55 6.03L157.55 6.03L157.55 6.03Q157.71 5.80 157.94 5.64L157.94 5.64L157.94 5.64Q158.17 5.48 158.48 5.40L158.48 5.40L158.48 5.40Q158.79 5.33 159.22 5.33L159.22 5.33L159.22 5.33Q160.05 5.33 160.44 5.62L160.44 5.62L160.44 5.62Q160.83 5.91 160.83 6.46L160.83 6.46L160.83 6.46Q160.83 7.10 160.36 7.46L160.36 7.46L160.36 7.46Q159.90 7.81 159.05 7.81L159.05 7.81L159.05 7.81Q159.05 7.53 159.02 7.31L159.02 7.31L159.02 7.31Q158.99 7.09 158.91 6.95L158.91 6.95L158.91 6.95Q158.83 6.80 158.70 6.73L158.70 6.73L158.70 6.73Q158.57 6.65 158.37 6.65L158.37 6.65L158.37 6.65Q158.12 6.65 157.94 6.77L157.94 6.77L157.94 6.77Q157.77 6.90 157.64 7.09L157.64 7.09L157.64 7.09Q157.52 7.29 157.44 7.53L157.44 7.53L157.44 7.53Q157.36 7.78 157.32 8.03L157.32 8.03L157.32 8.03Q157.27 8.28 157.26 8.50L157.26 8.50L157.26 8.50Q157.25 8.73 157.25 8.89L157.25 8.89L157.25 11.31L157.25 11.31Q157.25 11.62 157.32 11.81L157.32 11.81L157.32 11.81Q157.40 12.00 157.53 12.09L157.53 12.09L157.53 12.09Q157.66 12.19 157.84 12.22L157.84 12.22L157.84 12.22Q158.02 12.25 158.22 12.25L158.22 12.25L158.68 12.25ZM165.20 6.22L165.20 6.22L165.20 6.22Q164.61 6.22 164.26 6.80L164.26 6.80L164.26 6.80Q163.92 7.38 163.88 8.50L163.88 8.50L166.30 8.50L166.30 8.50Q166.30 7.97 166.24 7.55L166.24 7.55L166.24 7.55Q166.18 7.12 166.05 6.83L166.05 6.83L166.05 6.83Q165.92 6.54 165.71 6.38L165.71 6.38L165.71 6.38Q165.50 6.22 165.20 6.22ZM165.33 13.13L165.33 13.13L165.33 13.13Q164.44 13.13 163.76 12.87L163.76 12.87L163.76 12.87Q163.08 12.61 162.62 12.12L162.62 12.12L162.62 12.12Q162.16 11.63 161.93 10.91L161.93 10.91L161.93 10.91Q161.70 10.20 161.70 9.28L161.70 9.28L161.70 9.28Q161.70 8.30 161.93 7.55L161.93 7.55L161.93 7.55Q162.16 6.81 162.61 6.31L162.61 6.31L162.61 6.31Q163.05 5.81 163.70 5.56L163.70 5.56L163.70 5.56Q164.34 5.31 165.17 5.31L165.17 5.31L165.17 5.31Q165.93 5.31 166.54 5.53L166.54 5.53L166.54 5.53Q167.15 5.74 167.57 6.17L167.57 6.17L167.57 6.17Q167.99 6.59 168.22 7.22L168.22 7.22L168.22 7.22Q168.44 7.85 168.44 8.68L168.44 8.68L168.44 9.40L163.86 9.40L163.86 9.40Q163.88 10.10 164.01 10.61L164.01 10.61L164.01 10.61Q164.14 11.12 164.38 11.44L164.38 11.44L164.38 11.44Q164.62 11.77 164.95 11.93L164.95 11.93L164.95 11.93Q165.29 12.09 165.73 12.09L165.73 12.09L165.73 12.09Q166.09 12.09 166.40 12.00L166.40 12.00L166.40 12.00Q166.71 11.92 166.96 11.76L166.96 11.76L166.96 11.76Q167.21 11.61 167.40 11.40L167.40 11.40L167.40 11.40Q167.58 11.19 167.71 10.95L167.71 10.95L167.71 10.95Q168.08 11.16 168.08 11.63L168.08 11.63L168.08 11.63Q168.08 11.94 167.92 12.21L167.92 12.21L167.92 12.21Q167.75 12.48 167.41 12.68L167.41 12.68L167.41 12.68Q167.07 12.89 166.55 13.01L166.55 13.01L166.55 13.01Q166.04 13.13 165.33 13.13ZM176.37 13.13L176.37 13.13L176.37 13.13Q175.42 13.13 174.79 12.95L174.79 12.95L174.79 12.95Q174.17 12.78 173.79 12.50L173.79 12.50L173.79 12.50Q173.41 12.22 173.25 11.87L173.25 11.87L173.25 11.87Q173.09 11.52 173.09 11.18L173.09 11.18L173.09 11.18Q173.09 10.81 173.22 10.57L173.22 10.57L173.22 10.57Q173.35 10.32 173.57 10.17L173.57 10.17L173.57 10.17Q173.80 10.01 174.08 9.94L174.08 9.94L174.08 9.94Q174.36 9.87 174.67 9.87L174.67 9.87L174.67 9.87Q174.67 10.47 174.82 10.93L174.82 10.93L174.82 10.93Q174.96 11.38 175.21 11.69L175.21 11.69L175.21 11.69Q175.46 11.99 175.82 12.14L175.82 12.14L175.82 12.14Q176.17 12.30 176.59 12.30L176.59 12.30L176.59 12.30Q177.00 12.30 177.32 12.18L177.32 12.18L177.32 12.18Q177.64 12.07 177.86 11.86L177.86 11.86L177.86 11.86Q178.09 11.66 178.21 11.38L178.21 11.38L178.21 11.38Q178.32 11.10 178.32 10.78L178.32 10.78L178.32 10.78Q178.32 10.42 178.18 10.15L178.18 10.15L178.18 10.15Q178.04 9.87 177.74 9.64L177.74 9.64L177.74 9.64Q177.45 9.40 177.01 9.18L177.01 9.18L177.01 9.18Q176.57 8.97 175.98 8.72L175.98 8.72L175.98 8.72Q175.25 8.42 174.75 8.10L174.75 8.10L174.75 8.10Q174.25 7.79 173.94 7.42L173.94 7.42L173.94 7.42Q173.63 7.05 173.50 6.62L173.50 6.62L173.50 6.62Q173.37 6.19 173.37 5.67L173.37 5.67L173.37 5.67Q173.37 5.03 173.63 4.51L173.63 4.51L173.63 4.51Q173.89 3.99 174.34 3.62L174.34 3.62L174.34 3.62Q174.80 3.25 175.43 3.06L175.43 3.06L175.43 3.06Q176.06 2.86 176.80 2.86L176.80 2.86L176.80 2.86Q177.57 2.86 178.13 2.98L178.13 2.98L178.13 2.98Q178.69 3.11 179.06 3.33L179.06 3.33L179.06 3.33Q179.42 3.55 179.60 3.85L179.60 3.85L179.60 3.85Q179.78 4.14 179.78 4.48L179.78 4.48L179.78 4.48Q179.78 4.73 179.67 4.94L179.67 4.94L179.67 4.94Q179.57 5.15 179.35 5.31L179.35 5.31L179.35 5.31Q179.14 5.47 178.81 5.56L178.81 5.56L178.81 5.56Q178.49 5.65 178.06 5.65L178.06 5.65L178.06 5.65Q178.06 5.35 177.98 5.01L177.98 5.01L177.98 5.01Q177.90 4.68 177.72 4.39L177.72 4.39L177.72 4.39Q177.54 4.09 177.26 3.90L177.26 3.90L177.26 3.90Q176.98 3.71 176.57 3.71L176.57 3.71L176.57 3.71Q176.29 3.71 176.04 3.79L176.04 3.79L176.04 3.79Q175.79 3.88 175.60 4.04L175.60 4.04L175.60 4.04Q175.41 4.20 175.30 4.45L175.30 4.45L175.30 4.45Q175.19 4.69 175.19 5.00L175.19 5.00L175.19 5.00Q175.19 5.30 175.29 5.56L175.29 5.56L175.29 5.56Q175.38 5.82 175.64 6.07L175.64 6.07L175.64 6.07Q175.90 6.32 176.34 6.57L176.34 6.57L176.34 6.57Q176.79 6.82 177.50 7.10L177.50 7.10L177.50 7.10Q178.22 7.40 178.73 7.70L178.73 7.70L178.73 7.70Q179.23 8.01 179.56 8.36L179.56 8.36L179.56 8.36Q179.88 8.72 180.03 9.14L180.03 9.14L180.03 9.14Q180.17 9.56 180.17 10.07L180.17 10.07L180.17 10.07Q180.17 10.75 179.91 11.31L179.91 11.31L179.91 11.31Q179.64 11.87 179.14 12.28L179.14 12.28L179.14 12.28Q178.64 12.68 177.94 12.91L177.94 12.91L177.94 12.91Q177.24 13.13 176.37 13.13ZM188.79 9.21L188.79 9.21L188.79 9.21Q188.79 11.19 187.87 12.16L187.87 12.16L187.87 12.16Q186.94 13.13 185.14 13.13L185.14 13.13L185.14 13.13Q184.30 13.13 183.63 12.89L183.63 12.89L183.63 12.89Q182.96 12.65 182.50 12.16L182.50 12.16L182.50 12.16Q182.03 11.68 181.78 10.94L181.78 10.94L181.78 10.94Q181.53 10.20 181.53 9.21L181.53 9.21L181.53 9.21Q181.53 7.24 182.45 6.28L182.45 6.28L182.45 6.28Q183.38 5.31 185.19 5.31L185.19 5.31L185.19 5.31Q186.03 5.31 186.69 5.55L186.69 5.55L186.69 5.55Q187.36 5.79 187.83 6.28L187.83 6.28L187.83 6.28Q188.30 6.76 188.55 7.50L188.55 7.50L188.55 7.50Q188.79 8.23 188.79 9.21ZM183.70 9.21L183.70 9.21L183.70 9.21Q183.70 9.96 183.78 10.53L183.78 10.53L183.78 10.53Q183.86 11.09 184.03 11.48L184.03 11.48L184.03 11.48Q184.21 11.86 184.49 12.06L184.49 12.06L184.49 12.06Q184.77 12.25 185.17 12.25L185.17 12.25L185.17 12.25Q185.58 12.25 185.85 12.06L185.85 12.06L185.85 12.06Q186.13 11.86 186.30 11.48L186.30 11.48L186.30 11.48Q186.48 11.09 186.55 10.53L186.55 10.53L186.55 10.53Q186.63 9.96 186.63 9.21L186.63 9.21L186.63 9.21Q186.63 8.46 186.55 7.90L186.55 7.90L186.55 7.90Q186.47 7.33 186.30 6.96L186.30 6.96L186.30 6.96Q186.12 6.58 185.84 6.40L185.84 6.40L185.84 6.40Q185.56 6.21 185.16 6.21L185.16 6.21L185.16 6.21Q184.75 6.21 184.47 6.40L184.47 6.40L184.47 6.40Q184.19 6.58 184.02 6.96L184.02 6.96L184.02 6.96Q183.85 7.33 183.78 7.90L183.78 7.90L183.78 7.90Q183.70 8.46 183.70 9.21ZM189.69 12.25L189.85 12.25L189.85 12.25Q190.01 12.25 190.19 12.22L190.19 12.22L190.19 12.22Q190.36 12.19 190.51 12.09L190.51 12.09L190.51 12.09Q190.65 12.00 190.75 11.82L190.75 11.82L190.75 11.82Q190.85 11.64 190.85 11.34L190.85 11.34L190.85 3.95L190.85 3.95Q190.85 3.67 190.75 3.50L190.75 3.50L190.75 3.50Q190.65 3.34 190.50 3.24L190.50 3.24L190.50 3.24Q190.35 3.15 190.18 3.12L190.18 3.12L190.18 3.12Q190.00 3.10 189.85 3.10L189.85 3.10L189.69 3.10L189.69 2.36L192.98 2.36L192.98 11.34L192.98 11.34Q192.98 11.64 193.08 11.82L193.08 11.82L193.08 11.82Q193.18 12.00 193.32 12.09L193.32 12.09L193.32 12.09Q193.47 12.19 193.65 12.22L193.65 12.22L193.65 12.22Q193.83 12.25 193.98 12.25L193.98 12.25L194.14 12.25L194.14 13.00L189.69 13.00L189.69 12.25ZM203.37 13.00L200.58 13.00L200.27 12.00L200.20 12.00L200.20 12.00Q199.99 12.37 199.75 12.59L199.75 12.59L199.75 12.59Q199.50 12.81 199.22 12.93L199.22 12.93L199.22 12.93Q198.94 13.05 198.63 13.09L198.63 13.09L198.63 13.09Q198.32 13.13 197.99 13.13L197.99 13.13L197.99 13.13Q196.90 13.13 196.31 12.46L196.31 12.46L196.31 12.46Q195.73 11.78 195.73 10.36L195.73 10.36L195.73 7.23L195.73 7.23Q195.73 6.92 195.67 6.73L195.67 6.73L195.67 6.73Q195.62 6.54 195.50 6.43L195.50 6.43L195.50 6.43Q195.38 6.32 195.20 6.28L195.20 6.28L195.20 6.28Q195.02 6.23 194.77 6.23L194.77 6.23L194.74 6.23L194.74 5.49L197.85 5.49L197.85 9.97L197.85 9.97Q197.85 10.42 197.90 10.79L197.90 10.79L197.90 10.79Q197.96 11.15 198.08 11.41L198.08 11.41L198.08 11.41Q198.20 11.66 198.41 11.80L198.41 11.80L198.41 11.80Q198.61 11.94 198.92 11.94L198.92 11.94L198.92 11.94Q199.25 11.94 199.50 11.80L199.50 11.80L199.50 11.80Q199.74 11.65 199.89 11.37L199.89 11.37L199.89 11.37Q200.05 11.09 200.12 10.70L200.12 10.70L200.12 10.70Q200.19 10.31 200.19 9.82L200.19 9.82L200.19 7.13L200.19 7.13Q200.19 6.82 200.11 6.64L200.11 6.64L200.11 6.64Q200.03 6.47 199.89 6.37L199.89 6.37L199.89 6.37Q199.75 6.28 199.57 6.26L199.57 6.26L199.57 6.26Q199.38 6.23 199.18 6.23L199.18 6.23L199.14 6.23L199.14 5.49L202.32 5.49L202.32 11.37L202.32 11.37Q202.32 11.68 202.39 11.85L202.39 11.85L202.39 11.85Q202.46 12.02 202.58 12.11L202.58 12.11L202.58 12.11Q202.71 12.20 202.88 12.23L202.88 12.23L202.88 12.23Q203.05 12.25 203.25 12.25L203.25 12.25L203.37 12.25L203.37 13.00ZM208.11 12.00L208.11 12.00L208.11 12.00Q208.39 12.00 208.64 11.97L208.64 11.97L208.64 11.97Q208.89 11.93 209.10 11.87L209.10 11.87L209.10 12.78L209.10 12.78Q209.00 12.84 208.81 12.90L208.81 12.90L208.81 12.90Q208.62 12.96 208.37 13.01L208.37 13.01L208.37 13.01Q208.12 13.06 207.81 13.10L207.81 13.10L207.81 13.10Q207.49 13.13 207.12 13.13L207.12 13.13L207.12 13.13Q206.65 13.13 206.27 13.02L206.27 13.02L206.27 13.02Q205.88 12.91 205.62 12.64L205.62 12.64L205.62 12.64Q205.35 12.38 205.21 11.96L205.21 11.96L205.21 11.96Q205.06 11.54 205.06 10.92L205.06 10.92L205.06 6.45L204.01 6.45L204.01 5.73L204.01 5.73Q204.46 5.73 204.82 5.55L204.82 5.55L204.82 5.55Q205.17 5.37 205.39 5.14L205.39 5.14L205.39 5.14Q205.82 4.69 206.03 3.75L206.03 3.75L207.19 3.75L207.19 5.49L208.98 5.49L208.98 6.45L207.19 6.45L207.19 10.78L207.19 10.78Q207.19 11.42 207.41 11.71L207.41 11.71L207.41 11.71Q207.62 12.00 208.11 12.00ZM210.59 3.22L210.59 3.22L210.59 3.22Q210.59 2.95 210.68 2.76L210.68 2.76L210.68 2.76Q210.77 2.57 210.93 2.45L210.93 2.45L210.93 2.45Q211.09 2.33 211.31 2.27L211.31 2.27L211.31 2.27Q211.52 2.21 211.78 2.21L211.78 2.21L211.78 2.21Q212.02 2.21 212.24 2.27L212.24 2.27L212.24 2.27Q212.45 2.33 212.62 2.45L212.62 2.45L212.62 2.45Q212.78 2.57 212.88 2.76L212.88 2.76L212.88 2.76Q212.98 2.95 212.98 3.22L212.98 3.22L212.98 3.22Q212.98 3.48 212.88 3.67L212.88 3.67L212.88 3.67Q212.78 3.86 212.62 3.99L212.62 3.99L212.62 3.99Q212.45 4.11 212.24 4.17L212.24 4.17L212.24 4.17Q212.02 4.23 211.78 4.23L211.78 4.23L211.78 4.23Q211.52 4.23 211.31 4.17L211.31 4.17L211.31 4.17Q211.09 4.11 210.93 3.99L210.93 3.99L210.93 3.99Q210.77 3.86 210.68 3.67L210.68 3.67L210.68 3.67Q210.59 3.48 210.59 3.22ZM209.62 12.25L209.79 12.25L209.79 12.25Q209.95 12.25 210.12 12.22L210.12 12.22L210.12 12.22Q210.29 12.19 210.44 12.09L210.44 12.09L210.44 12.09Q210.59 12.00 210.69 11.82L210.69 11.82L210.69 11.82Q210.79 11.64 210.79 11.34L210.79 11.34L210.79 7.09L210.79 7.09Q210.79 6.81 210.69 6.64L210.69 6.64L210.69 6.64Q210.59 6.47 210.44 6.38L210.44 6.38L210.44 6.38Q210.29 6.29 210.11 6.26L210.11 6.26L210.11 6.26Q209.94 6.23 209.79 6.23L209.79 6.23L209.62 6.23L209.62 5.49L212.91 5.49L212.91 11.34L212.91 11.34Q212.91 11.64 213.01 11.82L213.01 11.82L213.01 11.82Q213.11 12.00 213.26 12.09L213.26 12.09L213.26 12.09Q213.40 12.19 213.58 12.22L213.58 12.22L213.58 12.22Q213.76 12.25 213.91 12.25L213.91 12.25L214.07 12.25L214.07 13.00L209.62 13.00L209.62 12.25ZM222.24 9.21L222.24 9.21L222.24 9.21Q222.24 11.19 221.31 12.16L221.31 12.16L221.31 12.16Q220.38 13.13 218.59 13.13L218.59 13.13L218.59 13.13Q217.75 13.13 217.08 12.89L217.08 12.89L217.08 12.89Q216.41 12.65 215.94 12.16L215.94 12.16L215.94 12.16Q215.47 11.68 215.22 10.94L215.22 10.94L215.22 10.94Q214.97 10.20 214.97 9.21L214.97 9.21L214.97 9.21Q214.97 7.24 215.90 6.28L215.90 6.28L215.90 6.28Q216.82 5.31 218.63 5.31L218.63 5.31L218.63 5.31Q219.47 5.31 220.13 5.55L220.13 5.55L220.13 5.55Q220.80 5.79 221.27 6.28L221.27 6.28L221.27 6.28Q221.74 6.76 221.99 7.50L221.99 7.50L221.99 7.50Q222.24 8.23 222.24 9.21ZM217.14 9.21L217.14 9.21L217.14 9.21Q217.14 9.96 217.22 10.53L217.22 10.53L217.22 10.53Q217.30 11.09 217.48 11.48L217.48 11.48L217.48 11.48Q217.65 11.86 217.93 12.06L217.93 12.06L217.93 12.06Q218.21 12.25 218.61 12.25L218.61 12.25L218.61 12.25Q219.02 12.25 219.29 12.06L219.29 12.06L219.29 12.06Q219.57 11.86 219.74 11.48L219.74 11.48L219.74 11.48Q219.92 11.09 219.99 10.53L219.99 10.53L219.99 10.53Q220.07 9.96 220.07 9.21L220.07 9.21L220.07 9.21Q220.07 8.46 219.99 7.90L219.99 7.90L219.99 7.90Q219.91 7.33 219.74 6.96L219.74 6.96L219.74 6.96Q219.56 6.58 219.28 6.40L219.28 6.40L219.28 6.40Q219.00 6.21 218.60 6.21L218.60 6.21L218.60 6.21Q218.20 6.21 217.92 6.40L217.92 6.40L217.92 6.40Q217.64 6.58 217.46 6.96L217.46 6.96L217.46 6.96Q217.29 7.33 217.22 7.90L217.22 7.90L217.22 7.90Q217.14 8.46 217.14 9.21ZM231.87 13.00L228.76 13.00L228.76 8.39L228.76 8.39Q228.76 7.94 228.70 7.58L228.70 7.58L228.70 7.58Q228.64 7.23 228.51 6.99L228.51 6.99L228.51 6.99Q228.38 6.75 228.16 6.63L228.16 6.63L228.16 6.63Q227.94 6.50 227.64 6.50L227.64 6.50L227.64 6.50Q227.29 6.50 227.06 6.68L227.06 6.68L227.06 6.68Q226.82 6.86 226.68 7.15L226.68 7.15L226.68 7.15Q226.54 7.45 226.48 7.84L226.48 7.84L226.48 7.84Q226.42 8.24 226.42 8.67L226.42 8.67L226.42 11.34L226.42 11.34Q226.42 11.63 226.49 11.81L226.49 11.81L226.49 11.81Q226.56 11.99 226.69 12.09L226.69 12.09L226.69 12.09Q226.82 12.19 227.01 12.22L227.01 12.22L227.01 12.22Q227.20 12.25 227.43 12.25L227.43 12.25L227.47 12.25L227.47 13.00L223.17 13.00L223.17 12.25L223.20 12.25L223.20 12.25Q223.44 12.25 223.64 12.22L223.64 12.22L223.64 12.22Q223.84 12.19 223.98 12.09L223.98 12.09L223.98 12.09Q224.13 11.98 224.21 11.79L224.21 11.79L224.21 11.79Q224.29 11.60 224.29 11.29L224.29 11.29L224.29 7.14L224.29 7.14Q224.29 6.85 224.22 6.67L224.22 6.67L224.22 6.67Q224.15 6.49 224.02 6.40L224.02 6.40L224.02 6.40Q223.88 6.30 223.70 6.27L223.70 6.27L223.70 6.27Q223.51 6.23 223.28 6.23L223.28 6.23L223.24 6.23L223.24 5.49L226.18 5.49L226.37 6.49L226.43 6.49L226.43 6.49Q226.65 6.09 226.88 5.86L226.88 5.86L226.88 5.86Q227.12 5.63 227.38 5.50L227.38 5.50L227.38 5.50Q227.65 5.38 227.95 5.35L227.95 5.35L227.95 5.35Q228.25 5.31 228.57 5.31L228.57 5.31L228.57 5.31Q229.11 5.31 229.54 5.47L229.54 5.47L229.54 5.47Q229.97 5.63 230.27 5.95L230.27 5.95L230.27 5.95Q230.57 6.28 230.73 6.79L230.73 6.79L230.73 6.79Q230.88 7.30 230.88 8.01L230.88 8.01L230.88 11.26L230.88 11.26Q230.88 11.59 230.94 11.78L230.94 11.78L230.94 11.78Q231 11.98 231.12 12.08L231.12 12.08L231.12 12.08Q231.23 12.18 231.41 12.22L231.41 12.22L231.41 12.22Q231.59 12.25 231.83 12.25L231.83 12.25L231.87 12.25L231.87 13.00ZM235.46 13.13L235.46 13.13L235.46 13.13Q234.71 13.13 234.17 13.01L234.17 13.01L234.17 13.01Q233.63 12.89 233.29 12.67L233.29 12.67L233.29 12.67Q232.96 12.45 232.80 12.15L232.80 12.15L232.80 12.15Q232.65 11.85 232.65 11.50L232.65 11.50L232.65 11.50Q232.65 11.16 232.78 10.95L232.78 10.95L232.78 10.95Q232.91 10.74 233.12 10.62L233.12 10.62L233.12 10.62Q233.32 10.51 233.54 10.47L233.54 10.47L233.54 10.47Q233.77 10.43 233.95 10.43L233.95 10.43L233.95 10.43Q233.95 10.87 234.06 11.22L234.06 11.22L234.06 11.22Q234.17 11.57 234.37 11.81L234.37 11.81L234.37 11.81Q234.57 12.05 234.85 12.18L234.85 12.18L234.85 12.18Q235.12 12.31 235.46 12.31L235.46 12.31L235.46 12.31Q235.83 12.31 236.09 12.24L236.09 12.24L236.09 12.24Q236.35 12.16 236.52 12.03L236.52 12.03L236.52 12.03Q236.69 11.89 236.77 11.72L236.77 11.72L236.77 11.72Q236.85 11.55 236.85 11.35L236.85 11.35L236.85 11.35Q236.85 11.12 236.77 10.94L236.77 10.94L236.77 10.94Q236.68 10.76 236.48 10.60L236.48 10.60L236.48 10.60Q236.28 10.44 235.95 10.28L235.95 10.28L235.95 10.28Q235.62 10.13 235.13 9.96L235.13 9.96L235.13 9.96Q234.56 9.76 234.13 9.54L234.13 9.54L234.13 9.54Q233.69 9.32 233.40 9.03L233.40 9.03L233.40 9.03Q233.10 8.75 232.94 8.38L232.94 8.38L232.94 8.38Q232.79 8.02 232.79 7.55L232.79 7.55L232.79 7.55Q232.79 6.99 233.01 6.57L233.01 6.57L233.01 6.57Q233.22 6.15 233.62 5.88L233.62 5.88L233.62 5.88Q234.01 5.60 234.57 5.46L234.57 5.46L234.57 5.46Q235.12 5.33 235.80 5.33L235.80 5.33L235.80 5.33Q236.46 5.33 236.93 5.44L236.93 5.44L236.93 5.44Q237.39 5.55 237.69 5.74L237.69 5.74L237.69 5.74Q237.98 5.92 238.12 6.15L238.12 6.15L238.12 6.15Q238.25 6.38 238.25 6.62L238.25 6.62L238.25 6.62Q238.25 7.10 237.92 7.34L237.92 7.34L237.92 7.34Q237.59 7.59 236.82 7.59L236.82 7.59L236.82 7.59Q236.82 6.89 236.51 6.50L236.51 6.50L236.51 6.50Q236.20 6.12 235.59 6.12L235.59 6.12L235.59 6.12Q235.37 6.12 235.16 6.17L235.16 6.17L235.16 6.17Q234.95 6.23 234.80 6.34L234.80 6.34L234.80 6.34Q234.64 6.45 234.55 6.61L234.55 6.61L234.55 6.61Q234.46 6.77 234.46 6.99L234.46 6.99L234.46 6.99Q234.46 7.21 234.54 7.39L234.54 7.39L234.54 7.39Q234.63 7.57 234.85 7.73L234.85 7.73L234.85 7.73Q235.06 7.89 235.43 8.05L235.43 8.05L235.43 8.05Q235.80 8.22 236.37 8.42L236.37 8.42L236.37 8.42Q236.84 8.58 237.23 8.79L237.23 8.79L237.23 8.79Q237.62 9.00 237.91 9.27L237.91 9.27L237.91 9.27Q238.19 9.54 238.35 9.88L238.35 9.88L238.35 9.88Q238.51 10.23 238.51 10.67L238.51 10.67L238.51 10.67Q238.51 11.25 238.30 11.71L238.30 11.71L238.30 11.71Q238.10 12.17 237.71 12.48L237.71 12.48L237.71 12.48Q237.32 12.80 236.76 12.96L236.76 12.96L236.76 12.96Q236.19 13.13 235.46 13.13Z"></path></g></svg>