<svg data-v-fde0c5aa="" xmlns="http://www.w3.org/2000/svg" viewBox="0 0 300 300" class="icon"><!----><defs data-v-fde0c5aa=""><!----></defs><rect data-v-fde0c5aa="" fill="#00242C" x="0" y="0" width="300px" height="300px" class="logo-background-square"></rect><!----><defs data-v-fde0c5aa=""><!----></defs><g data-v-fde0c5aa="" id="d7bf2d01-db9b-425f-93a0-ab84d934dcfd" fill="#81E291" stroke="none" transform="matrix(2.75,0,0,2.75,12.087506294250488,12.5)"><path d="M11.1 90h78c.6 0 1-.4 1-1s-.4-1-1-1h-9.6v-8.8c1.7 0 4.9-.3 7.2-2.5 3-2.9 2.7-7.9 2.7-8.1 0-.5-.4-.9-.9-.9-.2 0-3-.3-5.6.8.3-.8.4-1.7.4-2.6 0-4.4-4-7.8-4.2-7.9-.4-.3-.9-.3-1.3 0-.2.1-4.1 3.6-4.1 8 0 .8.2 1.7.4 2.4-2.5-1-5.1-.8-5.2-.8-.5 0-.9.4-.9.9 0 .2-.5 5.2 2.5 8.2 2.2 2.2 5.4 2.6 7.1 2.7V88H50.9v-8.8c1.7 0 4.9-.3 7.1-2.5 3-2.9 2.7-7.9 2.7-8.1 0-.5-.4-.9-.9-.9-.2 0-3-.3-5.6.8.3-.8.4-1.7.4-2.6 0-4.4-4-7.8-4.2-7.9-.4-.3-.9-.3-1.3 0-.2.1-4.1 3.6-4.1 8 0 .8.2 1.7.4 2.4-2.5-1-5.1-.8-5.2-.8-.5 0-.9.4-.9.9 0 .2-.5 5.2 2.5 8.2 2.2 2.2 5.4 2.6 7.1 2.7V88H22.2v-8.8c1.7 0 4.9-.3 7.1-2.5 3-2.9 2.7-7.9 2.7-8.1 0-.5-.4-.9-.9-.9-.2 0-3-.3-5.6.8.3-.8.4-1.7.4-2.6 0-4.4-4-7.8-4.2-7.9-.4-.3-.9-.3-1.3 0-.2.1-4.1 3.6-4.1 8 0 .8.2 1.7.4 2.4-2.5-1-5.1-.8-5.2-.8-.5 0-.9.4-.9.9 0 .2-.5 5.2 2.5 8.2 2.2 2.2 5.4 2.6 7.1 2.7V88h-9c-.6 0-1 .4-1 1s.4 1 .9 1zm74.2-14.7c-1.7 1.6-4.3 1.9-5.7 1.9.1-1.4.4-4 2.1-5.7 1.7-1.6 4.3-1.9 5.7-1.9-.1 1.4-.4 4.1-2.1 5.7zm-6.8-15.2c1 1 2.8 3.2 2.8 5.8 0 2.5-1.7 4.7-2.7 5.8-1-1-2.8-3.2-2.8-5.8-.1-2.4 1.7-4.7 2.7-5.8zm-6.6 15.2C70.3 73.6 70 71 70 69.6c1.4.1 4 .4 5.7 2.1 1.5 1.6 1.8 3.9 1.9 5.4v.3c-1.4-.1-4.1-.4-5.7-2.1zm-15.3 0c-1.7 1.6-4.3 1.9-5.7 1.9.1-1.4.4-4 2.1-5.7 1.7-1.6 4.3-1.9 5.7-1.9 0 1.4-.4 4.1-2.1 5.7zm-6.8-15.2c1 1 2.8 3.2 2.8 5.8 0 2.5-1.7 4.7-2.7 5.8-1-1-2.8-3.2-2.8-5.8-.1-2.4 1.7-4.7 2.7-5.8zm-6.6 15.2c-1.6-1.7-1.9-4.3-1.9-5.7 1.4.1 4 .4 5.7 2.1 1.5 1.6 1.9 4 1.9 5.4v.3c-1.4-.1-4.1-.4-5.7-2.1zm-15.3 0c-1.7 1.6-4.3 1.9-5.7 1.9.1-1.4.4-4 2.1-5.7 1.7-1.6 4.3-1.9 5.7-1.9 0 1.4-.4 4.1-2.1 5.7zm-6.8-15.2c1 1 2.8 3.2 2.8 5.8 0 2.5-1.7 4.7-2.7 5.8-1-1-2.8-3.2-2.8-5.8-.1-2.4 1.7-4.7 2.7-5.8zm-6.6 15.2c-1.6-1.7-1.9-4.3-1.9-5.7 1.4.1 4 .4 5.7 2.1 1.5 1.6 1.9 4 1.9 5.4v.3c-1.4-.1-4.1-.5-5.7-2.1zM49.3 39.7c5.1 0 9.2-4.1 9.2-9.2s-4.1-9.2-9.2-9.2-9.2 4.1-9.2 9.2 4.1 9.2 9.2 9.2zm0-16.4c4 0 7.2 3.2 7.2 7.2s-3.2 7.2-7.2 7.2-7.2-3.2-7.2-7.2 3.2-7.2 7.2-7.2zM49.3 17c.6 0 1-.4 1-1v-5c0-.6-.4-1-1-1s-1 .4-1 1v5c0 .6.4 1 1 1zM55.9 18.8c.2.1.3.1.5.1.3 0 .7-.2.9-.5l2.5-4.4c.3-.5.1-1.1-.4-1.4-.5-.3-1.1-.1-1.4.4l-2.5 4.4c-.2.5 0 1.1.4 1.4zM61.7 24.1c.2 0 .3 0 .5-.1l4.3-2.6c.5-.3.6-.9.4-1.4-.3-.5-.9-.6-1.4-.4l-4.3 2.6c-.5.3-.6.9-.4 1.4.3.4.6.5.9.5zM62.7 30.3c0 .5.5 1 1 1l5-.1c.6 0 1-.5 1-1s-.5-1-1-1l-5 .1c-.5 0-1 .4-1 1zM62.4 36.6c-.5-.3-1.1-.1-1.4.4-.3.5-.1 1.1.4 1.4l4.4 2.4c.2.1.3.1.5.1.4 0 .7-.2.9-.5.3-.5.1-1.1-.4-1.4l-4.4-2.4zM56.3 42c-.5.3-.6.9-.3 1.4l2.6 4.3c.2.3.5.5.9.5.2 0 .4 0 .5-.1.5-.3.6-.9.3-1.4l-2.6-4.3c-.3-.6-.9-.7-1.4-.4zM49.7 44c-.6 0-1 .5-1 1l.2 5c0 .5.5 1 1 1 .6 0 1-.5 1-1l-.2-5c0-.6-.4-1.1-1-1zM41.6 42.8l-2.3 4.4c-.3.5-.1 1.1.4 1.4.1.1.3.1.5.1.4 0 .7-.2.9-.5l2.3-4.4c.3-.5.1-1.1-.4-1.4-.5-.2-1.1 0-1.4.4zM36.5 37.5l-4.2 2.7c-.5.3-.6.9-.3 1.4.2.3.5.5.8.5.2 0 .4-.1.5-.2l4.2-2.7c.5-.3.6-.9.3-1.4-.2-.5-.8-.6-1.3-.3zM29.8 32.5l5.1-.3c.6 0 1-.5.9-1 0-.6-.5-1-1-.9l-5 .3c-.6 0-1 .5-.9 1-.1.5.4.9.9.9zM31.4 22.6l4.5 2.3c.1.1.3.1.5.1.4 0 .7-.2.9-.5.2-.5.1-1.1-.4-1.3l-4.5-2.3c-.5-.2-1.1-.1-1.3.4-.4.4-.2 1 .3 1.3zM40.4 19c.2.3.5.4.8.4.2 0 .4-.1.6-.2.5-.3.6-.9.3-1.4l-2.8-4.2c-.3-.5-.9-.6-1.4-.3s-.6.9-.3 1.4l2.8 4.3z"></path></g><!----></svg>